<?xml version="1.0" encoding="UTF-8" standalone="no"?>
<!DOCTYPE svg PUBLIC "-//W3C//DTD SVG 1.1//EN" "http://www.w3.org/Graphics/SVG/1.1/DTD/svg11.dtd">
<svg width="100%" height="100%" viewBox="0 0 198 15" version="1.1" xmlns="http://www.w3.org/2000/svg" xmlns:xlink="http://www.w3.org/1999/xlink" xml:space="preserve" xmlns:serif="http://www.serif.com/" style="fill-rule:evenodd;clip-rule:evenodd;stroke-linejoin:round;stroke-miterlimit:2;"><g transform="matrix(1,0,0,1,-0.419922,-0.658203)"><path d="M2.35,8.3L16.445,7.7L29.365,7.1L41.95,6.4C43.795,6.3 45.725,6.1 47.655,6.1L56.045,5.9L60.659,5.9L69.3,6.1L82.221,6.7L108.649,8L121.653,8.8L134.573,9.5C142.711,9.9 150.85,10.2 158.904,10.8L165.616,11.3L173.083,12L179.543,12.7L182.228,13L185.332,13.5L189.695,14.1L195.232,15.3L195.735,15.4C196.16,15.424 196.579,15.28 196.928,14.99C197.277,14.701 197.536,14.282 197.665,13.8C197.833,13.2 197.749,12.5 197.497,11.9C197.329,11.5 196.826,10.9 196.406,10.8L192.883,10L189.359,9.3C185.535,8.688 181.704,8.155 177.865,7.7C178.183,7.438 178.432,7.072 178.581,6.647C178.729,6.221 178.772,5.753 178.704,5.3C178.536,4.7 178.2,4.1 177.865,3.8L176.942,3.3C176.22,3.132 175.492,2.998 174.761,2.9L173.083,2.6L169.895,2.4L163.602,2L150.598,1.5L137.678,1.2L130.882,1L110.411,1L97.155,0.8C89.016,0.7 80.711,0.6 72.489,0.7L60.239,0.7C55.877,0.7 51.514,0.7 47.151,0.9L38.51,1L33.56,1.1L25.673,1.5L20.472,1.8C14.263,2.3 8.139,2.8 2.014,3.5C1.595,3.6 1.343,3.8 1.091,4.1C0.672,4.5 0.42,5.1 0.42,5.7C0.42,7 1.259,8.2 2.35,8.2" style="fill:rgb(135,212,255);"/></g></svg>
