<svg width="60" height="60" viewBox="0 0 60 60" fill="none" xmlns="http://www.w3.org/2000/svg">
<circle opacity="0.2" cx="30" cy="30" r="30" fill="#04122D"/>
<circle opacity="0.2" cx="30" cy="30" r="25" fill="#04122D"/>
<path fill-rule="evenodd" clip-rule="evenodd" d="M29.7802 19L29.8322 19H29.9965L30.0485 19H30.0485C30.947 19 31.6962 18.9999 32.291 19.0799C32.9188 19.1643 33.4856 19.35 33.941 19.8055C34.3965 20.2609 34.5822 20.8277 34.6666 21.4555C34.7466 22.0503 34.7465 22.7995 34.7465 23.698V23.698L34.7465 23.75V25.2547C35.549 25.3651 36.2305 25.5757 36.8281 25.9998C37.2632 26.3087 37.6432 26.6886 37.9521 27.1238C38.426 27.7915 38.6332 28.5642 38.7322 29.4932C38.8287 30.3995 38.8287 31.5373 38.8287 32.9733V33.017V33.0606C38.8287 34.4967 38.8287 35.6344 38.7322 36.5407C38.6332 37.4698 38.426 38.2425 37.9521 38.9102C37.6432 39.3453 37.2632 39.7253 36.8281 40.0342C36.1603 40.5081 35.3877 40.7153 34.4586 40.8143C33.5523 40.9108 32.4146 40.9108 30.9786 40.9108H30.9785H30.9349H28.8938H28.8501H28.85C27.4141 40.9108 26.2763 40.9108 25.37 40.8143C24.441 40.7153 23.6683 40.5081 23.0006 40.0342C22.5655 39.7253 22.1855 39.3453 21.8766 38.9102C21.4026 38.2425 21.1954 37.4698 21.0965 36.5407C21 35.6344 21 34.4967 21 33.0607V33.0607V33.017V32.9733V32.9733C21 31.5373 21 30.3995 21.0965 29.4932C21.1954 28.5642 21.4026 27.7915 21.8766 27.1238C22.1855 26.6886 22.5655 26.3087 23.0006 25.9998C23.5981 25.5757 24.2797 25.3651 25.0822 25.2547V23.75L25.0822 23.698C25.0821 22.7995 25.0821 22.0503 25.1621 21.4555C25.2465 20.8277 25.4322 20.2609 25.8876 19.8055C26.3431 19.35 26.9099 19.1643 27.5377 19.0799C28.1325 18.9999 28.8817 19 29.7801 19H29.7802ZM33.2465 23.75V25.1437C32.5874 25.1232 31.8362 25.1232 30.9786 25.1232H30.9785L30.9349 25.1232H28.8938L28.8501 25.1232C27.9925 25.1232 27.2413 25.1232 26.5822 25.1437V23.75C26.5822 22.786 26.5838 22.1384 26.6487 21.6554C26.7107 21.1939 26.818 20.9964 26.9483 20.8661C27.0786 20.7358 27.2761 20.6286 27.7376 20.5665C28.2206 20.5016 28.8682 20.5 29.8322 20.5H29.9965C30.9605 20.5 31.6081 20.5016 32.0911 20.5665C32.5526 20.6286 32.7501 20.7358 32.8804 20.8661C33.0107 20.9964 33.1179 21.1939 33.18 21.6554C33.2449 22.1384 33.2465 22.786 33.2465 23.75ZM29.9142 31.2464C30.3284 31.2464 30.6642 31.5821 30.6642 31.9964V34.0374C30.6642 34.4517 30.3284 34.7874 29.9142 34.7874C29.5 34.7874 29.1642 34.4517 29.1642 34.0374V31.9964C29.1642 31.5821 29.5 31.2464 29.9142 31.2464Z" fill="#FDB813"/>
</svg>
