<svg width="3929" height="630" viewBox="0 0 3929 630" fill="none" xmlns="http://www.w3.org/2000/svg">
<path d="M227.055 153.522C484.403 151.445 727.572 264.97 983.448 284.534C1119.33 294.923 1257.54 284.309 1393.51 281.181C1568.23 277.16 1748.56 274.08 1919.97 237.111C2089.6 200.525 2250.35 172.059 2423.52 205.735C2504.15 221.414 2581.29 252.317 2661.72 269.804C2731.98 285.078 2802.45 296.941 2873.25 309.203C3032.46 336.78 3197.1 322.604 3357.21 307.048C3428.06 300.164 3498.7 292.985 3569.91 291.479C3628.92 290.232 3692.87 279.788 3751.58 285.372C3782.03 288.268 3787.22 314.758 3777.66 339.86C3759.46 387.663 3723.3 427.325 3677.45 449.196C3619.7 476.74 3551 474.548 3488.7 478.536C3404.6 483.921 3319.48 485.871 3235.27 481.889C3048.54 473.059 2861.04 451.992 2674.71 435.903C2575.86 427.368 2477.51 427.634 2378.43 424.168C2277.32 420.63 2176.39 413.234 2075.19 411.354C1962.55 409.261 1849.12 416.512 1736.54 420.335C1622.24 424.217 1507.85 422.97 1393.51 422.97C1169.24 422.97 946.942 449.805 722.936 456.382C538.006 461.811 345.412 478.87 196.601 345.249C152.178 305.361 122.732 239.613 170.396 187.293C201.282 153.39 254.776 142.277 297.17 147.055" stroke="url(#paint0_linear)" stroke-width="292" stroke-linecap="round" stroke-linejoin="round"/>
<defs>
<linearGradient id="paint0_linear" x1="1964" y1="146" x2="1964" y2="484" gradientUnits="userSpaceOnUse">
<stop stop-color="#3377C5"/>
<stop offset="1" stop-opacity="0"/>
</linearGradient>
</defs>
</svg>
