<?xml version="1.0" standalone="no"?>
<!DOCTYPE svg PUBLIC "-//W3C//DTD SVG 20010904//EN"
 "http://www.w3.org/TR/2001/REC-SVG-20010904/DTD/svg10.dtd">
<svg version="1.0" xmlns="http://www.w3.org/2000/svg"
 width="107.000000pt" height="107.000000pt" viewBox="0 0 107.000000 107.000000"
 preserveAspectRatio="xMidYMid meet">
<metadata>
Created by potrace 1.14, written by Peter Selinger 2001-2017
</metadata>
<g transform="translate(0.000000,107.000000) scale(0.100000,-0.100000)"
fill="#000000" stroke="none">
<path d="M89 777 c-52 -35 -79 -82 -79 -139 0 -73 9 -85 176 -260 68 -71 101
-98 118 -98 17 0 43 21 89 70 l65 70 67 -70 c72 -73 94 -87 121 -72 9 5 60 57
113 114 53 58 144 158 203 222 60 65 108 125 108 135 0 22 -30 51 -53 51 -9 0
-100 -90 -203 -200 -115 -122 -192 -196 -199 -192 -6 4 -28 26 -48 48 l-37 41
96 104 c124 133 130 143 116 174 -15 33 -60 34 -91 2 l-22 -24 -46 24 c-58 29
-106 29 -163 1 -66 -34 -85 -66 -85 -146 0 -57 4 -72 27 -102 l26 -35 -38 -42
c-21 -24 -42 -43 -48 -43 -6 0 -51 44 -101 97 -96 102 -107 126 -75 171 18 26
78 30 104 7 15 -13 20 -11 50 20 29 30 32 36 19 51 -39 48 -154 59 -210 21z
m447 -87 l27 -11 -53 -54 c-48 -49 -55 -53 -66 -37 -22 29 -17 68 12 91 30 24
41 25 80 11z"/>
</g>
</svg>
