<?xml version="1.0" standalone="no"?>
<!DOCTYPE svg PUBLIC "-//W3C//DTD SVG 1.1//EN" "http://www.w3.org/Graphics/SVG/1.1/DTD/svg11.dtd" >
<svg xmlns="http://www.w3.org/2000/svg">
<metadata>Generated by IcoMoon</metadata>
<defs>
<font id="ph" horiz-adv-x="1024">
<font-face units-per-em="1024" ascent="960" descent="-64" />
<missing-glyph horiz-adv-x="1024" />
<glyph unicode="&#x20;" horiz-adv-x="512" d="" />
<glyph unicode="&#xe900;" d="M768 448c0-94.257-76.41-170.667-170.667-170.667s-170.667 76.41-170.667 170.667c0 94.257 76.41 170.667 170.667 170.667s170.667-76.41 170.667-170.667z" />
<glyph unicode="&#xe901;" d="M426.667 821.333c-206.186 0-373.333-167.147-373.333-373.333s167.147-373.333 373.333-373.333h170.667c206.187 0 373.333 167.147 373.333 373.333s-167.147 373.333-373.333 373.333h-170.667zM117.333 448c0 170.84 138.493 309.333 309.333 309.333h170.667c170.842 0 309.333-138.493 309.333-309.333 0-170.842-138.492-309.333-309.333-309.333h-170.667c-170.84 0-309.333 138.492-309.333 309.333zM458.667 448c0 76.582 62.084 138.667 138.667 138.667s138.667-62.084 138.667-138.667c0-76.582-62.084-138.667-138.667-138.667s-138.667 62.084-138.667 138.667zM597.333 650.667c-111.932 0-202.667-90.737-202.667-202.667 0-111.932 90.735-202.667 202.667-202.667s202.667 90.735 202.667 202.667c0 111.93-90.735 202.667-202.667 202.667z" />
<glyph unicode="&#xe902;" d="M810.667 490.667c0-188.514-152.819-341.333-341.333-341.333s-341.333 152.819-341.333 341.333c0 188.513 152.82 341.333 341.333 341.333s341.333-152.82 341.333-341.333z" />
<glyph unicode="&#xe903;" d="M160 490.667c0 170.84 138.493 309.333 309.333 309.333 170.842 0 309.333-138.493 309.333-309.333 0-170.842-138.492-309.333-309.333-309.333-170.84 0-309.333 138.492-309.333 309.333zM469.333 864c-206.186 0-373.333-167.147-373.333-373.333s167.147-373.333 373.333-373.333c91.571 0 175.445 32.969 240.393 87.684l120.981-120.977c12.497-12.497 32.755-12.497 45.252 0s12.497 32.755 0 45.252l-120.977 120.981c54.716 64.947 87.684 148.821 87.684 240.393 0 206.186-167.147 373.333-373.333 373.333z" />
<glyph unicode="&#xe904;" d="M128 832v-512c0-120.678 0-181.018 37.49-218.509s97.83-37.491 218.51-37.491h341.333v768l-149.333-85.333-149.333 85.333-149.333-85.333-149.333 85.333z" />
<glyph unicode="&#xe905;" d="M111.939 859.677c-9.866-5.725-15.939-16.27-15.939-27.677v-514.342c-0.001-58.351-0.002-105.382 4.972-142.374 5.164-38.404 16.209-70.737 41.891-96.422 25.682-25.681 58.018-36.727 96.422-41.89 36.991-4.971 84.023-4.971 142.374-4.971h429.008c64.802 0 117.333 52.531 117.333 117.333v298.667c0 17.673-14.327 32-32 32h-138.667v352c0 11.407-6.071 21.952-15.94 27.677-9.865 5.725-22.033 5.766-31.936 0.107l-133.457-76.261-133.457 76.261c-9.839 5.622-21.915 5.622-31.753 0l-133.457-76.261-133.457 76.261c-9.904 5.66-22.072 5.619-31.938-0.107zM810.667 96c-29.457 0-53.333 23.876-53.333 53.333v266.667h106.667v-266.667c0-29.457-23.876-53.333-53.333-53.333zM706.129 96h-322.129c-61.244 0-103.959 0.068-136.187 4.399-31.308 4.211-47.887 11.908-59.695 23.718s-19.508 28.386-23.717 59.695c-4.333 32.23-4.401 74.944-4.401 136.188v456.858l101.457-57.975c9.838-5.622 21.915-5.622 31.753 0l133.457 76.261 133.457-76.261c9.839-5.622 21.914-5.622 31.753 0l101.457 57.975v-627.525c0-19.204 4.612-37.333 12.796-53.333zM266.667 576c0-17.673 14.327-32 32-32h170.667c17.673 0 32 14.327 32 32s-14.327 32-32 32h-170.667c-17.673 0-32-14.327-32-32zM426.667 437.333h128c17.673 0 32-14.327 32-32s-14.327-32-32-32h-128c-17.673 0-32 14.327-32 32s14.327 32 32 32zM394.667 234.667c0-17.673 14.327-32 32-32h128c17.673 0 32 14.327 32 32s-14.327 32-32 32h-128c-17.673 0-32-14.327-32-32zM341.333 405.333c0 23.565-19.102 42.667-42.667 42.667s-42.667-19.102-42.667-42.667c0-23.565 19.103-42.667 42.667-42.667s42.667 19.102 42.667 42.667zM298.667 192c-23.564 0-42.667 19.102-42.667 42.667s19.103 42.667 42.667 42.667c23.564 0 42.667-19.102 42.667-42.667s-19.102-42.667-42.667-42.667z" />
<glyph unicode="&#xe906;" glyph-name="activity-2" d="M640 778.667c12.8 0 24.371-7.629 29.414-19.395l119.684-279.272h149.568c17.673 0 32-14.327 32-32s-14.327-32-32-32h-170.667c-12.8 0-24.371 7.629-29.414 19.396l-98.586 230.035-226.587-528.702c-5.043-11.767-16.612-19.396-29.413-19.396s-24.37 7.629-29.413 19.396l-119.688 279.27h-149.566c-17.673 0-32 14.327-32 32s14.327 32 32 32h170.667c12.801 0 24.37-7.629 29.413-19.396l98.587-230.037 226.586 528.706c5.043 11.766 16.614 19.395 29.414 19.395z" />
<glyph unicode="&#xe907;" d="M213.333 576c0-79.616 31.153-151.957 81.934-205.495 46.324-48.841 88.685-107.285 88.733-174.588v38.75c0 0 64.013-42.667 128.009-42.667 63.991 0 127.991 42.667 127.991 42.667v-38.865c0 67.354 42.385 125.833 88.734 174.703 50.782 53.538 81.933 125.879 81.933 205.495 0 164.949-133.717 298.667-298.667 298.667s-298.667-133.718-298.667-298.667zM384 149.333v46.468c0 0.038 0 0.077 0 0.115v-46.583z" />
<glyph unicode="&#xe908;" d="M245.333 576c0 147.276 119.391 266.667 266.667 266.667s266.667-119.391 266.667-266.667c0-71.1-27.785-135.642-73.152-183.475-34.206-36.066-70.153-80.977-87.275-133.739-1.387-0.836-3.102-1.852-5.116-3.004-6.268-3.58-15.296-8.397-26.121-13.205-22.208-9.873-49.451-18.577-74.995-18.577-25.549 0-52.796 8.704-75.008 18.577-10.825 4.809-19.856 9.626-26.124 13.21-2.014 1.148-3.729 2.163-5.115 3.004-17.123 52.757-53.071 97.668-87.277 133.734-45.367 47.834-73.151 112.375-73.151 183.475zM416 181.918c25.429-10.825 59.977-21.918 96.009-21.918 36.023 0 70.566 11.089 95.991 21.918v-32.585c0-53.018-42.982-96-96-96s-96 42.982-96 96v32.585zM512 906.667c-182.622 0-330.667-148.044-330.667-330.667 0-88.132 34.522-168.269 90.716-227.52 45.593-48.068 79.951-98.586 79.951-152.678v-46.468c0-88.367 71.634-160 160-160s160 71.633 160 160v46.468c0 54.093 34.359 104.61 79.949 152.678 56.196 59.251 90.718 139.388 90.718 227.52 0 182.622-148.045 330.667-330.667 330.667z" />
<glyph unicode="&#xe909;" d="M256 661.333h256v-341.333h-256c-94.257 0-170.667 76.412-170.667 170.667 0 94.257 76.41 170.667 170.667 170.667zM981.333 490.671c0-70.69-57.306-128-128-128v256.001c70.694 0 128-57.308 128-128.001z" />
<glyph unicode="&#xe90a;" d="M599.467 686.944l-55.467-41.6v-309.332l55.467-41.6c60.446-45.338 102.895-77.069 136.021-95.070 33.327-18.112 47.411-16.845 56.363-12.369s18.419 14.98 23.927 52.514c5.47 37.299 5.555 90.3 5.555 165.858v170.665c0 75.557-0.085 128.557-5.555 165.856-5.508 37.532-14.976 48.037-23.927 52.513s-23.036 5.745-56.363-12.368c-33.126-18.001-75.575-49.734-136.021-95.068zM885.086 333.828c-0.478-40.986-1.877-75.618-5.986-103.633-6.289-42.833-20.407-81.353-58.628-100.463-38.217-19.11-77.508-7.292-115.546 13.376-37.747 20.514-83.938 55.159-141.577 98.389l-2.283 1.715-59.725 44.791h-85.342v-160.004c0-53.022-42.981-96-96-96s-96 42.978-96 96v162.517c-96.725 15.339-170.667 99.11-170.667 200.154 0 111.929 90.737 202.666 202.667 202.666h245.325l62.025 46.519c57.638 43.23 103.829 77.875 141.577 98.388 38.037 20.672 77.329 32.489 115.546 13.379 38.221-19.11 52.339-57.632 58.628-100.465 4.109-28.015 5.508-62.648 5.986-103.633 73.156-14.729 128.247-79.356 128.247-156.85 0-77.491-55.091-142.118-128.247-156.847zM885.333 400.141c37.286 13.175 64 48.738 64 90.534 0 41.801-26.714 77.36-64 90.539 0-0.782 0-1.565 0-2.351v-176.372zM480 629.337h-224c-76.584 0-138.667-62.083-138.667-138.666s62.083-138.667 138.667-138.667h224v277.333zM288 288v-160c0-17.673 14.327-32 32-32s32 14.327 32 32v160h-64z" />
<glyph unicode="&#xe90b;" d="M469.333 64h85.333c160.905 0 241.361 0 291.345 49.988 49.988 49.984 49.988 130.441 49.988 291.345v42.667h-768v-42.667c0-160.905 0-241.361 49.987-291.345 49.987-49.988 130.44-49.988 291.346-49.988z" />
<glyph unicode="&#xe90c;" d="M311.846 736c15.342 96.725 99.113 170.667 200.154 170.667 101.043 0 184.811-73.942 200.154-170.667h99.593c18.961 0 34.795 0 47.791-0.886 13.53-0.923 26.308-2.913 38.699-8.045 28.749-11.909 51.593-34.75 63.501-63.5 5.133-12.39 7.121-25.17 8.043-38.7 0.887-12.997 0.887-28.827 0.887-47.791v-2.156c0-18.964 0-34.794-0.887-47.793-0.922-13.53-2.91-26.308-8.043-38.699-7.415-17.894-19.063-33.502-33.737-45.606v-39.902c0-78.409 0-140.514-6.532-189.12-6.729-50.022-20.898-90.513-52.826-122.445-31.932-31.927-72.422-46.097-122.445-52.826-48.606-6.532-110.711-6.532-189.12-6.532h-90.155c-78.409 0-140.515 0-189.121 6.532-50.023 6.729-90.512 20.898-122.442 52.826-31.93 31.932-46.1 72.422-52.826 122.445-6.535 48.606-6.534 110.711-6.534 189.124v39.898c-14.673 12.105-26.322 27.712-33.735 45.606-5.132 12.39-7.122 25.169-8.045 38.699-0.887 12.998-0.887 28.829-0.886 47.793v2.155c0 18.964 0 34.795 0.886 47.791 0.923 13.53 2.913 26.31 8.045 38.7 11.909 28.75 34.75 51.592 63.5 63.5 12.39 5.132 25.17 7.122 38.7 8.045 12.997 0.887 28.828 0.887 47.791 0.886h99.59zM377.044 736h269.911c-14.443 61.156-69.385 106.667-134.955 106.667s-120.51-45.51-134.956-106.667zM864 417.233c-1.481-0.128-2.965-0.243-4.463-0.346-12.996-0.887-28.83-0.887-47.791-0.887h-97.079v-32c0-17.673-14.327-32-32-32s-32 14.327-32 32v32h-277.333v-32c0-17.673-14.327-32-32-32s-32 14.327-32 32v32h-97.078c-18.964 0-34.794 0-47.791 0.887-1.497 0.102-2.985 0.218-4.465 0.346v-11.9c0-81.357 0.068-139.157 5.963-183.006 5.771-42.923 16.594-67.657 34.651-85.713s42.789-28.881 85.715-34.65c43.847-5.897 101.646-5.965 183.004-5.965h85.333c81.357 0 139.157 0.068 183.006 5.965 42.923 5.769 67.657 16.593 85.713 34.65s28.881 42.79 34.65 85.713c5.897 43.849 5.965 101.649 5.965 183.006v11.9zM373.333 480h277.333v32c0 17.673 14.327 32 32 32s32-14.327 32-32v-32h96c20.318 0 33.954 0.017 44.514 0.738 10.27 0.7 15.27 1.958 18.564 3.319 13.065 5.414 23.45 15.799 28.864 28.864 1.361 3.294 2.62 8.294 3.319 18.564 0.721 10.56 0.738 24.196 0.738 44.514s-0.017 33.954-0.738 44.512c-0.7 10.271-1.958 15.272-3.319 18.564-5.414 13.068-15.799 23.451-28.864 28.864-3.294 1.364-8.294 2.621-18.564 3.322-10.56 0.72-24.196 0.738-44.514 0.738h-597.333c-20.318 0-33.954-0.017-44.512-0.738-10.271-0.701-15.272-1.958-18.564-3.322-13.068-5.413-23.451-15.796-28.864-28.864-1.364-3.292-2.621-8.293-3.322-18.564-0.72-10.559-0.738-24.195-0.738-44.512s0.017-33.954 0.738-44.514c0.701-10.27 1.958-15.27 3.322-18.564 5.413-13.065 15.796-23.45 28.864-28.864 3.292-1.361 8.293-2.62 18.564-3.319 10.559-0.721 24.195-0.738 44.512-0.738h96v32c0 17.673 14.327 32 32 32s32-14.327 32-32v-32z" />
<glyph unicode="&#xe90d;" d="M256 490.667c0 39.761 0 59.64 6.496 75.322 8.661 20.909 25.273 37.521 46.182 46.182 15.682 6.496 35.562 6.496 75.322 6.496s59.639 0 75.323-6.496c20.907-8.661 37.521-25.273 46.182-46.182 6.494-15.682 6.494-35.561 6.494-75.322 0 39.761 0 59.64 6.494 75.322 8.661 20.909 25.276 37.521 46.182 46.182 15.684 6.496 35.563 6.496 75.324 6.496s59.639 0 75.324-6.496c20.907-8.661 37.521-25.273 46.182-46.182 6.494-15.682 6.494-35.561 6.494-75.322v-42.667h170.667v-209.485c0-43.379 0-65.067-7.701-81.941-8.529-18.692-23.514-33.677-42.206-42.206-16.875-7.701-38.562-7.701-81.941-7.701-27.81 0-41.719 0-54.106 3.857-13.751 4.279-26.197 11.968-36.177 22.357-8.986 9.353-15.206 21.79-27.644 46.669l-6.225 12.45c-18.513 37.030-27.772 55.543-43.132 67.447-4.762 3.691-9.894 6.865-15.322 9.472-17.519 8.414-38.217 8.414-79.62 8.414h-65.186c-41.404 0-62.102 0-79.62-8.414-5.426-2.607-10.562-5.781-15.32-9.472-15.361-11.904-24.619-30.417-43.133-67.447l-6.225-12.45c-12.439-24.879-18.658-37.316-27.646-46.669-9.978-10.389-22.423-18.078-36.175-22.357-12.387-3.857-26.294-3.857-54.107-3.857-43.376 0-65.064 0-81.94 7.701-18.691 8.529-33.677 23.514-42.206 42.206-7.701 16.875-7.701 38.562-7.701 81.941v209.485h170.667v42.667z" />
<glyph unicode="&#xe90e;" d="M341.333 821.333h343.676c58.351 0.001 105.382 0.002 142.374-4.972 38.404-5.164 70.737-16.209 96.422-41.891 25.681-25.682 36.727-58.018 41.89-96.422 4.971-36.991 4.971-84.023 4.971-142.374v-298.337c0-20.689 0-37.956-1.050-52.105-1.097-14.737-3.46-28.625-9.54-41.946-11.725-25.698-32.333-46.306-58.031-58.031-13.321-6.080-27.209-8.444-41.946-9.54-14.148-1.050-31.415-1.050-52.105-1.050h-5.376c-23.693-0.021-42.278-0.034-59.418 5.299-18.91 5.888-36.019 16.461-49.741 30.741-12.437 12.945-20.736 29.577-31.313 50.773l-8.102 16.209c-9.493 18.987-15.765 31.467-21.453 40.802-5.406 8.866-9.165 12.954-12.663 15.663-2.974 2.304-6.182 4.288-9.574 5.918-3.989 1.916-9.323 3.452-19.669 4.322-10.897 0.913-24.866 0.939-46.093 0.939h-65.186c-21.227 0-35.196-0.026-46.093-0.939-10.346-0.87-15.68-2.406-19.67-4.322-3.392-1.63-6.601-3.614-9.575-5.918-3.499-2.709-7.258-6.797-12.661-15.663-5.69-9.335-11.96-21.815-21.453-40.802l-8.101-16.209c-10.579-21.197-18.878-37.828-31.315-50.773-13.72-14.281-30.832-24.853-49.74-30.741-17.141-5.333-35.726-5.321-59.416-5.299h-5.379c-20.687 0-37.955 0-52.102 1.050-14.739 1.097-28.625 3.46-41.946 9.54-25.7 11.725-46.306 32.333-58.033 58.031-6.079 13.321-8.443 27.209-9.539 41.946-1.051 14.148-1.051 31.415-1.050 52.105v298.337c-0.001 58.351-0.002 105.383 4.972 142.374 5.164 38.405 16.209 70.74 41.891 96.422s58.018 36.728 96.422 41.891c36.99 4.973 84.023 4.972 142.373 4.972h2.342zM145.451 729.216c-11.808-11.808-19.508-28.388-23.717-59.695-4.333-32.228-4.401-74.943-4.401-136.187v-53.333h106.667v11.742c0 18.965 0 34.799 0.886 47.793 0.923 13.53 2.913 26.31 8.045 38.7 11.909 28.75 34.75 51.592 63.5 63.5 12.39 5.132 25.17 7.122 38.7 8.045 12.997 0.887 28.828 0.887 47.791 0.886h2.155c18.964 0 34.795 0 47.793-0.886 13.53-0.923 26.308-2.913 38.699-8.045 15.441-6.396 29.175-15.946 40.431-27.87 11.255 11.924 24.99 21.474 40.431 27.87 12.39 5.132 25.169 7.122 38.699 8.045 12.996 0.887 28.83 0.887 47.795 0.886h2.155c18.961 0 34.795 0 47.791-0.886 13.53-0.923 26.308-2.913 38.699-8.045 28.749-11.909 51.593-34.75 63.501-63.5 5.133-12.39 7.121-25.17 8.043-38.7 0.887-12.995 0.887-28.828 0.887-47.789v-11.746h106.667v53.333c0 61.244-0.068 103.959-4.399 136.187-4.211 31.308-11.908 47.887-23.718 59.695s-28.386 19.508-59.695 23.717c-32.23 4.333-74.944 4.401-136.188 4.401h-341.333c-61.245 0-103.959-0.068-136.187-4.401-31.308-4.209-47.887-11.908-59.695-23.717zM768 416h-650.667v-177.485c0-22.17 0.020-37.043 0.875-48.538 0.83-11.166 2.316-16.563 3.939-20.117 5.331-11.682 14.697-21.052 26.379-26.381 3.555-1.621 8.951-3.11 20.119-3.938 11.492-0.853 26.37-0.875 48.536-0.875 29.91 0 37.964 0.346 44.597 2.411 8.595 2.675 16.372 7.479 22.609 13.973 4.813 5.009 8.724 12.058 22.1 38.81l6.791 13.581c8.776 17.553 16.228 32.461 23.48 44.361 7.694 12.621 16.244 23.748 28.107 32.943 6.543 5.069 13.604 9.434 21.065 13.018 13.527 6.498 27.302 9.173 42.033 10.406 13.888 1.165 30.554 1.165 50.176 1.165h67.721c19.622 0 36.288 0 50.176-1.165 14.733-1.233 28.506-3.908 42.035-10.406 7.458-3.584 14.519-7.949 21.065-13.018 11.861-9.195 20.412-20.322 28.105-32.943 7.253-11.9 14.707-26.807 23.484-44.361v0l0.563-1.131 6.225-12.45c13.376-26.752 17.289-33.801 22.101-38.81 6.234-6.494 14.012-11.298 22.609-13.973 6.63-2.065 14.686-2.411 44.595-2.411 22.17 0 37.043 0.021 48.538 0.875 11.166 0.828 16.563 2.317 20.117 3.938 11.682 5.329 21.052 14.699 26.381 26.381 1.621 3.554 3.106 8.951 3.938 20.117 0.853 11.494 0.875 26.368 0.875 48.538v177.485h-138.667zM480 480v10.667c0 20.318-0.017 33.954-0.738 44.512-0.7 10.271-1.958 15.272-3.319 18.564-5.414 13.068-15.799 23.451-28.864 28.864-3.294 1.364-8.294 2.621-18.564 3.322-10.56 0.72-24.196 0.738-44.514 0.738s-33.954-0.017-44.512-0.738c-10.271-0.701-15.272-1.958-18.564-3.322-13.068-5.413-23.451-15.796-28.864-28.864-1.364-3.292-2.621-8.293-3.322-18.564-0.72-10.558-0.738-24.195-0.738-44.512v-10.667h192zM736 480v10.667c0 20.318-0.017 33.954-0.738 44.512-0.7 10.271-1.958 15.272-3.319 18.564-5.414 13.068-15.799 23.451-28.864 28.864-3.294 1.364-8.294 2.621-18.564 3.322-10.56 0.72-24.196 0.738-44.514 0.738s-33.954-0.017-44.514-0.738c-10.27-0.701-15.27-1.958-18.564-3.322-13.065-5.413-23.45-15.796-28.86-28.864-1.365-3.292-2.624-8.293-3.324-18.564-0.721-10.558-0.738-24.195-0.738-44.512v-10.667h192z" />
<glyph unicode="&#xe90f;" d="M512 64c-212.077 0-384 171.921-384 384 0 212.077 171.923 384 384 384 212.079 0 384-171.923 384-384 0-212.079-171.921-384-384-384zM512 320c70.694 0 128 57.306 128 128s-57.306 128-128 128c-70.694 0-128-57.306-128-128s57.306-128 128-128z" />
<glyph unicode="&#xe910;" d="M512 800c-194.404 0-352-157.596-352-352 0-194.402 157.596-352 352-352 194.402 0 352 157.598 352 352 0 194.404-157.598 352-352 352zM96 448c0 229.751 186.249 416 416 416s416-186.249 416-416c0-229.751-186.249-416-416-416s-416 186.249-416 416zM416 448c0 53.018 42.982 96 96 96s96-42.982 96-96c0-53.018-42.982-96-96-96s-96 42.982-96 96zM512 608c-88.366 0-160-71.634-160-160s71.634-160 160-160c88.367 0 160 71.633 160 160s-71.633 160-160 160z" />
<glyph unicode="&#xe911;" d="M512 64c-212.077 0-384 171.921-384 384 0 212.077 171.923 384 384 384 212.079 0 384-171.923 384-384 0-212.079-171.921-384-384-384zM512 362.667c47.13 0 85.333 38.204 85.333 85.333s-38.204 85.333-85.333 85.333c-47.13 0-85.333-38.204-85.333-85.333s38.204-85.333 85.333-85.333z" />
<glyph unicode="&#xe912;" d="M544 798.565c168.87-15.217 303.347-149.697 318.566-318.565h-94.566c-17.673 0-32-14.327-32-32s14.327-32 32-32h94.566c-15.219-168.87-149.696-303.347-318.566-318.566v94.566c0 17.673-14.327 32-32 32s-32-14.327-32-32v-94.566c-168.868 15.219-303.348 149.696-318.565 318.566h94.565c17.673 0 32 14.327 32 32s-14.327 32-32 32h-94.565c15.217 168.868 149.697 303.348 318.565 318.565v-94.565c0-17.673 14.327-32 32-32s32 14.327 32 32v94.565zM512 32c229.751 0 416 186.249 416 416s-186.249 416-416 416c-229.751 0-416-186.249-416-416s186.249-416 416-416zM458.667 448c0 29.457 23.876 53.333 53.333 53.333s53.333-23.876 53.333-53.333c0-29.457-23.876-53.333-53.333-53.333s-53.333 23.876-53.333 53.333zM512 565.333c-64.802 0-117.333-52.531-117.333-117.333s52.531-117.333 117.333-117.333c64.802 0 117.333 52.531 117.333 117.333s-52.531 117.333-117.333 117.333z" />
<glyph unicode="&#xe913;" d="M85.333 576c0 120.68 0 181.019 37.49 218.51s97.83 37.49 218.51 37.49h341.333c120.678 0 181.018 0 218.509-37.49s37.491-97.83 37.491-218.51v-85.333c0-120.678 0-181.018-37.491-218.509s-97.83-37.491-218.509-37.491h-341.333c-120.68 0-181.019 0-218.51 37.491s-37.49 97.83-37.49 218.509v85.333z" />
<glyph unicode="&#xe914;" d="M341.333 864h343.676c58.351 0.001 105.382 0.002 142.374-4.972 38.404-5.164 70.737-16.209 96.422-41.891 25.681-25.682 36.727-58.018 41.89-96.422 4.971-36.991 4.971-84.023 4.971-142.374v-152.809c0-28.86 0-52.134-1.293-71.078-1.327-19.482-4.13-36.706-10.889-53.018-16.239-39.202-47.386-70.349-86.588-86.588-16.311-6.758-33.536-9.562-53.018-10.889-18.944-1.293-42.219-1.293-71.078-1.293h-22.468c-17.673 0-32 14.327-32 32s14.327 32 32 32h21.333c30.259 0 51.349 0.017 67.857 1.143 16.222 1.105 25.668 3.179 32.879 6.165 23.526 9.741 42.214 28.429 51.955 51.955 2.987 7.211 5.060 16.657 6.165 32.879 1.126 16.508 1.143 37.598 1.143 67.857v149.333c0 61.244-0.068 103.959-4.399 136.187-4.211 31.308-11.908 47.887-23.718 59.695s-28.386 19.508-59.695 23.717c-32.23 4.333-74.944 4.401-136.188 4.401h-341.333c-61.245 0-103.959-0.068-136.187-4.401-31.308-4.209-47.887-11.908-59.695-23.717s-19.508-28.388-23.717-59.695c-4.333-32.228-4.401-74.942-4.401-136.187v-149.333c0-30.259 0.017-51.349 1.144-67.857 1.107-16.222 3.176-25.668 6.164-32.879 9.743-23.526 28.432-42.214 51.955-51.955 7.212-2.987 16.659-5.060 32.88-6.165 16.509-1.126 37.6-1.143 67.857-1.143h21.333c17.673 0 32-14.327 32-32s-14.327-32-32-32h-22.47c-28.856 0-52.133 0-71.078 1.293-19.48 1.327-36.705 4.13-53.015 10.889-39.205 16.239-70.353 47.386-86.592 86.588-6.756 16.311-9.558 33.536-10.887 53.018-1.293 18.944-1.292 42.219-1.292 71.078v152.809c-0.001 58.351-0.002 105.383 4.972 142.374 5.164 38.405 16.209 70.74 41.891 96.422s58.018 36.728 96.422 41.891c36.991 4.973 84.023 4.972 142.374 4.972h2.341zM534.626 299.959c-12.497 12.497-32.755 12.497-45.252 0l-213.335-213.333c-9.152-9.152-11.889-22.916-6.937-34.871 4.953-11.959 16.621-19.755 29.564-19.755h426.667c12.941 0 24.61 7.795 29.564 19.755 4.954 11.955 2.214 25.719-6.938 34.871l-213.333 213.333zM512 232.077l136.077-136.077h-272.155l136.079 136.077z" />
<glyph unicode="&#xe915;" d="M397.107 64h229.786c74.078 0 111.113 0 141.491 12.083 35.853 14.255 65.818 40.243 85.005 73.719 16.256 28.365 21.491 65.028 31.966 138.359v0.004c3.388 23.697 5.082 35.55 2.061 44.924-3.563 11.051-11.473 20.173-21.909 25.259-8.853 4.318-20.826 4.318-44.766 4.318h-61.154c-30.49 0-45.734 0-59.405-4.779-8.35-2.918-16.196-7.117-23.253-12.446-11.558-8.725-20.015-21.406-36.928-46.775s-25.37-38.050-36.928-46.775c-7.057-5.329-14.903-9.527-23.253-12.446-13.67-4.779-28.915-4.779-59.405-4.779h-16.828c-30.49 0-45.734 0-59.405 4.779-8.35 2.918-16.196 7.117-23.254 12.446-11.56 8.725-20.016 21.406-36.928 46.775s-25.368 38.050-36.928 46.775c-7.059 5.329-14.904 9.527-23.253 12.446-13.672 4.779-28.916 4.779-59.405 4.779h-61.156c-23.942 0-35.912 0-44.764-4.318-10.436-5.086-18.347-14.208-21.909-25.259-3.021-9.374-1.329-21.227 2.057-44.928 10.476-73.331 15.714-109.995 31.97-138.359 19.186-33.476 49.149-59.465 85.003-73.719 30.378-12.083 67.415-12.083 141.491-12.083z" />
<glyph unicode="&#xe916;" d="M534.707 897.294l128-128c12.493-12.497 12.493-32.758 0-45.255-12.497-12.497-32.759-12.497-45.257 0l-73.374 73.373v-349.412c0-17.673-14.327-32-32-32s-32 14.327-32 32v349.412l-73.372-73.373c-12.497-12.497-32.758-12.497-45.255 0s-12.497 32.758 0 45.255l128 128c12.497 12.497 32.759 12.497 45.257 0zM315.919 650.669c-23.303 0.017-41.552 0.031-58.287-5.036-22.17-6.713-41.858-19.838-56.582-37.721-11.114-13.499-18.121-30.349-27.067-51.866l-48.437-116.254c-8.929-21.423-14.687-35.238-18.353-49.728-4.029-15.919-6.107-32.273-6.191-48.695-0.075-14.946 2.043-29.76 5.328-52.736l0.341-2.389 0.167-1.165v-0.004c5.273-36.915 9.466-66.266 14.558-89.954 5.219-24.286 11.791-44.753 22.826-63.454 22.39-37.939 56.534-67.554 97.26-84.352 20.071-8.277 41.262-11.891 66.042-13.623 24.172-1.69 53.82-1.69 91.11-1.69h226.89c37.286 0 66.935 0 91.11 1.69 24.777 1.732 45.969 5.346 66.039 13.623 40.73 16.798 74.871 46.413 97.263 84.352 11.034 18.701 17.604 39.168 22.822 63.454 5.094 23.689 9.289 53.043 14.562 89.963l0.166 1.161 0.341 2.389c3.281 22.976 5.402 37.79 5.325 52.736-0.081 16.422-2.159 32.777-6.191 48.695-3.665 14.49-9.421 28.301-18.351 49.728l-48.439 116.254c-8.947 21.517-15.953 38.368-27.068 51.866-14.724 17.883-34.411 31.008-56.58 37.721-16.734 5.067-34.982 5.053-58.287 5.036l-25.493-0.002c-17.673 0-32-14.327-32-32s14.327-32 32-32h21.333c29.461 0 37.431-0.33 43.9-2.288 10.078-3.051 19.029-9.017 25.719-17.146 4.297-5.217 7.667-12.449 18.995-39.642l45.914-110.191c4.006-9.617 7.023-16.883 9.348-22.733l-92.855 0.004c-26.005 0.021-46.481 0.038-65.395-6.575-11.482-4.011-22.268-9.783-31.974-17.109-15.996-12.075-27.337-29.12-41.745-50.769l-2.53-3.802c-18.18-27.273-23.377-34.304-29.581-38.985-4.412-3.332-9.314-5.956-14.532-7.778-7.334-2.564-16.068-2.987-48.849-2.987h-16.828c-32.777 0-41.51 0.422-48.845 2.987-5.218 1.822-10.121 4.446-14.537 7.778-6.199 4.681-11.396 11.712-29.578 38.985l-2.529 3.797c-14.409 21.653-25.752 38.699-41.746 50.773-9.706 7.326-20.493 13.099-31.973 17.109-18.917 6.613-39.392 6.596-65.399 6.575l-92.855-0.004c2.327 5.85 5.342 13.116 9.349 22.733l45.912 110.191c11.331 27.193 14.701 34.425 18.997 39.642 6.693 8.129 15.642 14.095 25.719 17.146 6.468 1.958 14.44 2.288 43.899 2.288h21.333c17.673 0 32 14.327 32 32s-14.327 32-32 32l-25.492 0.002zM170.027 295.296c-2.487 17.408-3.912 27.631-4.572 35.371h99.038c32.777 0 41.512-0.422 48.847-2.987 5.218-1.822 10.121-4.446 14.533-7.778 6.202-4.681 11.399-11.712 29.58-38.985l2.529-3.797c14.408-21.653 25.752-38.699 41.746-50.773 9.707-7.326 20.493-13.099 31.975-17.109 18.914-6.613 39.39-6.596 65.395-6.575h25.958c26.005-0.021 46.481-0.038 65.399 6.575 11.482 4.011 22.268 9.783 31.974 17.109 15.991 12.075 27.337 29.12 41.745 50.769l2.53 3.802c18.18 27.273 23.377 34.304 29.577 38.985 4.416 3.332 9.318 5.956 14.537 7.778 7.334 2.564 16.068 2.987 48.845 2.987h99.038c-0.661-7.74-2.086-17.963-4.574-35.371-5.478-38.345-9.37-65.485-13.939-86.729-4.489-20.902-9.22-33.95-15.373-44.373-15.317-25.963-38.682-46.221-66.547-57.715-11.187-4.617-24.772-7.454-46.101-8.943-21.679-1.519-49.092-1.536-87.825-1.536h-224.525c-38.734 0-66.149 0.017-87.828 1.536-21.326 1.489-34.911 4.326-46.102 8.943-27.866 11.494-51.227 31.753-66.546 57.715-6.152 10.423-10.881 23.471-15.373 44.373-4.567 21.244-8.462 48.384-13.94 86.729z" />
<glyph unicode="&#xe917;" d="M597.333 789.333c70.694 0 128-57.308 128-128s-57.306-128-128-128c-70.694 0-128 57.308-128 128s57.306 128 128 128zM426.667 362.667c70.694 0 128-57.306 128-128s-57.306-128-128-128c-70.692 0-128 57.306-128 128s57.308 128 128 128z" />
<glyph unicode="&#xe918;" d="M437.333 661.333c0-88.366 71.633-160 160-160 77.406 0 141.973 54.968 156.8 128h141.867c17.673 0 32 14.327 32 32s-14.327 32-32 32h-141.867c-14.827 73.032-79.394 128-156.8 128-88.367 0-160-71.634-160-160zM597.333 757.333c53.018 0 96-42.981 96-96s-42.982-96-96-96c-53.018 0-96 42.981-96 96s42.982 96 96 96zM128 693.333h213.333c17.673 0 32-14.327 32-32s-14.327-32-32-32h-213.333c-17.673 0-32 14.327-32 32s14.327 32 32 32zM128 266.667h141.867c14.825 73.033 79.393 128 156.8 128 88.367 0 160-71.633 160-160s-71.633-160-160-160c-77.407 0-141.975 54.967-156.8 128h-141.867c-17.673 0-32 14.327-32 32s14.327 32 32 32zM330.667 234.667c0-53.018 42.981-96 96-96 53.018 0 96 42.982 96 96s-42.982 96-96 96c-53.019 0-96-42.982-96-96zM682.667 266.667h213.333c17.673 0 32-14.327 32-32s-14.327-32-32-32h-213.333c-17.673 0-32 14.327-32 32s14.327 32 32 32z" />
<glyph unicode="&#xe919;" glyph-name="wifi-slash" d="M150.627 854.627l167.681-167.681c0.346-0.331 0.686-0.671 1.018-1.018l136.805-136.806c0.222-0.215 0.439-0.434 0.657-0.656l187.511-187.514c0.367-0.35 0.725-0.708 1.075-1.071l273.25-273.254c12.497-12.497 12.497-32.755 0-45.252s-32.755-12.497-45.252 0l-269.777 269.773c-27.925 12.535-58.91 19.52-91.605 19.52-55.458 0-106.14-20.113-145.267-53.483-13.447-11.469-33.645-9.865-45.113 3.58-11.468 13.449-9.865 33.647 3.582 45.116 50.273 42.876 115.549 68.787 186.798 68.787 2.743 0 5.478-0.038 8.201-0.115l-96.802 96.802c-69.344-15.902-131.751-50.091-181.871-97.276-12.867-12.113-33.12-11.503-45.234 1.365s-11.504 33.118 1.364 45.235c48.968 46.097 108.111 81.574 173.729 102.689l-82.785 82.785c-73.899-31.825-139.687-78.979-193.343-137.478-11.945-13.026-32.188-13.901-45.213-1.954-13.025 11.942-13.899 32.188-1.954 45.21 54.055 58.939 119.215 107.559 192.19 142.542l-134.901 134.901c-12.497 12.497-12.497 32.758 0 45.255s32.758 12.497 45.255 0zM511.996 672c164.945 0 313.357-70.6 416.747-183.326 11.947-13.026 32.188-13.901 45.214-1.954 13.022 11.942 13.897 32.188 1.954 45.21-115.004 125.39-280.294 204.070-463.915 204.070-30.49 0-60.493-2.171-89.86-6.371-17.495-2.502-29.649-18.714-27.147-36.209s18.714-29.649 36.209-27.147c26.372 3.772 53.346 5.726 80.798 5.726zM565.973 531.162c-3.516-17.318 7.676-34.21 24.994-37.726 73.195-14.857 139.072-49.997 191.505-99.358 12.868-12.113 33.118-11.503 45.235 1.365 12.113 12.868 11.503 33.118-1.365 45.235-60.864 57.297-137.446 98.184-222.643 115.479-17.318 3.516-34.21-7.674-37.726-24.996zM512 149.333c-23.565 0-42.667 19.102-42.667 42.667s19.102 42.667 42.667 42.667c23.565 0 42.667-19.102 42.667-42.667s-19.102-42.667-42.667-42.667z" />
<glyph unicode="&#xe91a;" d="M338.68 191.603l-158.102 158.101c-40.963 40.964-61.445 61.444-71.168 87.727-9.723 26.287-7.502 55.164-3.058 112.925l4.31 56.030c8.031 104.401 12.047 156.602 45.528 190.084s85.682 37.497 190.083 45.528l56.030 4.31c57.759 4.443 86.64 6.665 112.923-3.058 26.287-9.723 46.767-30.205 87.731-71.168l158.101-158.102c85.333-85.331 128-127.998 128-181.020 0-53.018-42.667-95.684-128-181.018l-60.339-60.339c-85.333-85.333-128-128-181.022-128-53.018 0-95.684 42.667-181.017 128zM468.198 484.45c33.327 33.323 33.327 87.353 0 120.678-33.323 33.325-87.353 33.325-120.678 0s-33.325-87.355 0-120.678c33.324-33.327 87.355-33.327 120.678 0z" />
<glyph unicode="&#xe91b;" d="M157.658 573.769c4.079 53.026 6.968 89.819 12.665 117.68 5.518 26.982 12.959 41.606 23.584 52.23s25.248 18.067 52.23 23.584c27.862 5.697 64.654 8.586 117.68 12.665l56.030 4.31c60.681 4.668 81.19 5.559 99.366-1.165 18.18-6.724 33.169-20.749 76.207-63.783l158.101-158.102c43.307-43.305 73.459-73.556 93.184-99.412 19.162-25.114 25.442-42.278 25.442-58.978s-6.281-33.869-25.442-58.982c-19.725-25.852-49.877-56.107-93.184-99.413l-60.339-60.339c-43.307-43.307-73.557-73.459-99.413-93.184-25.114-19.162-42.278-25.442-58.978-25.442s-33.869 6.281-58.982 25.442c-25.852 19.725-56.105 49.877-99.412 93.184l-158.102 158.101c-43.034 43.038-57.059 58.031-63.783 76.207s-5.833 38.686-1.165 99.366l4.31 56.030zM148.653 788.934c-22.857-22.857-34.164-51.075-41.032-84.663-6.596-32.258-9.735-73.073-13.611-123.471l-0.163-2.122-4.31-56.028-0.521-6.746c-3.965-51.187-6.721-86.775 5.473-119.735 12.194-32.964 37.447-58.193 73.769-94.477l4.785-4.779 159.758-159.757c41.259-41.263 74.516-74.517 104.188-97.161 30.81-23.505 61.483-38.558 97.805-38.558 36.318 0 66.995 15.053 97.801 38.558 29.675 22.643 62.929 55.898 104.188 97.161l63.65 63.65c41.263 41.259 74.522 74.513 97.161 104.188 23.505 30.81 38.558 61.483 38.558 97.805 0 36.318-15.053 66.995-38.558 97.801-22.639 29.675-55.898 62.929-97.161 104.189v0l-164.535 164.542c-36.284 36.322-61.513 61.575-94.473 73.769-32.964 12.194-68.553 9.437-119.739 5.473l-64.896-4.995c-50.397-3.876-91.213-7.015-123.471-13.611-33.588-6.868-61.807-18.176-84.663-41.032zM385.239 476.911c-20.828 20.83-20.828 54.601 0 75.427 20.828 20.828 54.598 20.828 75.424 0 20.83-20.826 20.83-54.597 0-75.427-20.826-20.826-54.596-20.826-75.424 0zM339.985 597.592c-45.821-45.821-45.821-120.114 0-165.934 45.821-45.824 120.111-45.824 165.935 0 45.82 45.82 45.82 120.112 0 165.934-45.824 45.821-120.114 45.821-165.935 0z" />
<glyph unicode="&#xe91c;" d="M512 874.667c-211.9 0-319.861-129.923-374.070-246.381-31.456-67.578-47.184-101.365-22.027-140.827 25.157-39.458 69.443-39.458 158.014-39.458h476.162c88.572 0 132.86 0 158.016 39.458 25.156 39.462 9.429 73.249-22.025 140.827-54.212 116.458-162.172 246.381-374.071 246.381z" />
<glyph unicode="&#xe91d;" d="M387.386 823.949c-11.901-19.277-22.053-40.791-30.578-63.267-28.363-74.773-44.376-173.319-47.021-280.682h-35.807c-45.603 0-75.132 0.141-96.661 4.339-19.045 3.716-27.658 9.796-34.37 20.322-7.612 11.942-9.037 21.495-5.922 35.904 3.786 17.511 13.633 39.104 29.977 74.216 38.843 83.447 105.248 171.599 220.383 209.167zM512.064 906.667c228.796 0 345.801-141.828 403.081-264.877l1.335-2.87c14.579-31.313 27.686-59.458 33.173-84.828 6.323-29.248 3.034-56.316-14.511-83.836-18.445-28.928-44.553-42.581-76.083-48.73-28.356-5.53-64.192-5.53-105.856-5.525h-209.139v-309.333c0-64.802-52.535-117.333-117.333-117.333-64.803 0-117.335 52.531-117.335 117.333v42.667c0 17.673 14.327 32 32 32s32-14.327 32-32v-42.667c0-29.457 23.878-53.333 53.335-53.333 29.453 0 53.333 23.876 53.333 53.333v309.333h-209.145c-41.661-0.004-77.499-0.004-105.853 5.525-31.53 6.148-57.638 19.802-76.084 48.73-17.545 27.52-20.835 54.588-14.511 83.836 5.486 25.37 18.592 53.516 33.173 84.829l1.336 2.87c57.277 123.049 174.283 264.877 403.083 264.877zM512.064 842.667c-31.351 0-66.688-28.94-95.417-104.682-24.929-65.721-40.197-156.057-42.84-257.984h276.574c-2.462 111.313-17.826 202.145-42.769 265.632-27.951 71.142-62.741 97.034-95.548 97.034zM714.394 480h35.75c45.602 0 75.132 0.141 96.661 4.339 19.046 3.716 27.661 9.796 34.372 20.322 7.612 11.942 9.037 21.495 5.922 35.904-3.789 17.511-13.636 39.104-29.978 74.216-38.366 82.418-103.616 169.424-216.145 207.754 9.958-16.309 18.675-34.342 26.202-53.501 28.77-73.232 44.757-172.75 47.215-289.034z" />
<glyph unicode="&#xe91e;" d="M512 832c212.077 0 384-171.923 384-384s-171.923-384-384-384c-212.077 0-384 171.923-384 384s171.923 384 384 384z" />
<glyph unicode="&#xe91f;" d="M512 864c-229.751 0-416-186.249-416-416s186.249-416 416-416c229.751 0 416 186.249 416 416s-186.249 416-416 416zM160 448c0 194.404 157.596 352 352 352 194.402 0 352-157.596 352-352 0-194.402-157.598-352-352-352-194.404 0-352 157.598-352 352zM366.898 258.116c33.137 44.113 85.791 72.55 145.097 72.55 59.302 0 111.957-28.437 145.097-72.55 10.611-14.131 30.673-16.981 44.804-6.37 14.131 10.615 16.981 30.673 6.366 44.804-44.706 59.52-115.985 98.116-196.267 98.116-80.286 0-151.565-38.596-196.27-98.116-10.614-14.131-7.763-34.189 6.368-44.804 14.131-10.611 34.191-7.761 44.805 6.37zM426.666 533.333c0 23.564-19.102 42.667-42.667 42.667s-42.667-19.103-42.667-42.667c0-23.565 19.103-42.667 42.667-42.667s42.667 19.102 42.667 42.667zM640 490.667c-23.565 0-42.667 19.102-42.667 42.667s19.102 42.667 42.667 42.667c23.565 0 42.667-19.103 42.667-42.667s-19.102-42.667-42.667-42.667z" />
<glyph unicode="&#xe920;" d="M298.667 832h426.667c94.257 0 170.667-76.41 170.667-170.667v-426.667c0-94.257-76.41-170.667-170.667-170.667h-426.667c-94.257 0-170.667 76.41-170.667 170.667v426.667c0 94.257 76.41 170.667 170.667 170.667z" />
<glyph unicode="&#xe921;" d="M469.333 864h213.333c17.673 0 32-14.327 32-32s-14.327-32-32-32h-213.333c-81.358 0-139.157-0.068-183.004-5.963-42.927-5.771-67.658-16.594-85.715-34.651s-28.88-42.789-34.651-85.715c-5.895-43.847-5.963-101.646-5.963-183.004v-85.333c0-81.357 0.068-139.157 5.963-183.006 5.771-42.923 16.594-67.657 34.651-85.713s42.789-28.881 85.715-34.65c43.847-5.897 101.646-5.965 183.004-5.965h85.333c81.357 0 139.157 0.068 183.006 5.965 42.923 5.769 67.657 16.593 85.713 34.65s28.881 42.79 34.65 85.713c5.897 43.849 5.965 101.649 5.965 183.006v85.333c0 17.673 14.327 32 32 32s32-14.327 32-32v-87.744c0-78.409 0-140.514-6.532-189.12-6.729-50.022-20.898-90.513-52.826-122.445-31.932-31.927-72.422-46.097-122.445-52.826-48.606-6.532-110.711-6.532-189.12-6.532h-90.155c-78.409 0-140.515 0-189.121 6.532-50.023 6.729-90.512 20.898-122.442 52.826-31.93 31.932-46.1 72.422-52.826 122.445-6.535 48.606-6.534 110.711-6.534 189.124v90.146c-0.001 78.412-0.001 140.519 6.534 189.125 6.726 50.023 20.896 90.512 52.826 122.442s72.419 46.1 122.442 52.826c48.606 6.535 110.713 6.534 189.125 6.534h2.406zM918.626 724.039l-384-383.999c-5.999-6.003-14.14-9.374-22.626-9.374s-16.627 3.371-22.626 9.374l-128.001 128c-12.497 12.497-12.497 32.755 0 45.252s32.758 12.497 45.255 0l105.373-105.37 361.374 361.371c12.497 12.497 32.755 12.497 45.252 0s12.497-32.758 0-45.255z" />
<glyph unicode="&#xe922;" d="M810.667 320v256l-117.649 117.647c-85.333 85.333-128 128-181.018 128s-95.686-42.667-181.019-128l-117.647-117.647v-256c0-120.678 0-181.018 37.49-218.509s97.83-37.491 218.51-37.491h85.333c120.678 0 181.018 0 218.509 37.491s37.491 97.83 37.491 218.509z" />
<glyph unicode="&#xe923;" d="M413.948 731.362c29.085 29.084 48.669 48.573 65.203 61.187 15.791 12.050 24.986 14.774 32.849 14.774s17.058-2.723 32.849-14.774c16.533-12.614 36.117-32.102 65.203-61.187l103.006-103.006c38.844-38.842 51.558-52.361 58.3-68.635s7.309-34.827 7.309-89.756v-149.961c0-61.248-0.068-103.962-4.399-136.188-4.211-31.309-11.908-47.889-23.718-59.695-11.81-11.81-28.386-19.507-59.695-23.718-32.23-4.335-74.944-4.399-136.188-4.399h-85.333c-61.245 0-103.959 0.064-136.187 4.399-31.308 4.211-47.887 11.908-59.695 23.718-11.808 11.806-19.508 28.386-23.717 59.695-4.333 32.226-4.401 74.94-4.401 136.188v149.961c0 54.929 0.567 73.481 7.308 89.756 6.714 16.209 19.357 29.685 57.837 68.171 0.154 0.154 0.308 0.309 0.463 0.464l103.007 103.006zM253.254 661.178l-190.548-190.548c-12.497-12.497-12.497-32.759 0-45.257s32.758-12.497 45.255 0l73.422 73.425c-0.059-7.206-0.055-14.767-0.052-22.75l0.002-6.084v-152.303c-0.001-58.351-0.002-105.382 4.972-142.374 5.164-38.404 16.209-70.741 41.891-96.422s58.018-36.727 96.422-41.89c36.991-4.975 84.023-4.975 142.372-4.971h90.018c58.351-0.004 105.382-0.004 142.374 4.971 38.404 5.163 70.737 16.209 96.418 41.89 25.685 25.681 36.732 58.018 41.894 96.422 4.971 36.992 4.971 84.023 4.971 142.374v158.387c0.004 7.983 0.009 15.543-0.051 22.75l73.425-73.425c12.497-12.497 32.755-12.497 45.252 0s12.497 32.759 0 45.257l-190.562 190.563c-2.633 2.641-5.338 5.342-8.115 8.116l-108.877 108.876c-1.694 1.694-3.371 3.371-5.030 5.030-24.892 24.877-45.952 45.654-65.037 60.215-2.684 2.049-5.389 4.022-8.119 5.905-19.119 13.184-39.505 21.987-63.552 21.987-27.482 0-50.185-11.499-71.671-27.892-2.543-1.942-5.124-3.994-7.744-6.151-18.334-15.102-38.604-35.374-62.322-59.093v0 0z" />
<glyph unicode="&#xe924;" d="M512 832c212.077 0 384-171.923 384-384s-171.923-384-384-384c-212.077 0-384 171.923-384 384s171.923 384 384 384z" />
<glyph unicode="&#xe925;" d="M512 864c-229.751 0-416-186.249-416-416s186.249-416 416-416c229.751 0 416 186.249 416 416s-186.249 416-416 416zM160 448c0 194.404 157.596 352 352 352 194.402 0 352-157.596 352-352 0-194.402-157.598-352-352-352-194.404 0-352 157.598-352 352zM507.26 650.667c44.753 0 86.042-15.244 119.121-40.798 14.967-11.565 28.258-25.24 39.458-40.577 10.428-14.272 7.309-34.291-6.963-44.714-14.272-10.428-34.291-7.309-44.715 6.963-7.676 10.508-16.751 19.832-26.91 27.682-22.387 17.296-50.039 27.444-79.991 27.444-73.122 0-133.926-61.227-133.926-138.667s60.804-138.667 133.926-138.667c29.952 0 57.604 10.146 79.991 27.443 10.159 7.851 19.234 17.173 26.91 27.682 10.423 14.272 30.443 17.391 44.715 6.963 14.272-10.423 17.391-30.443 6.963-44.715-11.2-15.334-24.491-29.009-39.458-40.576-33.079-25.553-74.368-40.798-119.121-40.798-110.156 0-197.926 91.593-197.926 202.667s87.771 202.667 197.926 202.667z" />
<glyph unicode="&#xe926;" d="M384 874.667h256c94.257 0 170.667-76.41 170.667-170.667v-512c0-94.257-76.41-170.667-170.667-170.667h-256c-94.257 0-170.667 76.41-170.667 170.667v512c0 94.257 76.41 170.667 170.667 170.667z" />
<glyph unicode="&#xe927;" d="M510.225 906.667h3.55c58.419 0 104.708 0.001 141.675-3.76 37.871-3.852 69.487-11.916 97.148-30.396 22.127-14.786 41.126-33.786 55.915-55.916 18.479-27.657 26.543-59.275 30.396-97.148 3.759-36.965 3.759-83.254 3.759-141.673v-259.55c0-58.419 0-104.708-3.759-141.675-3.853-37.871-11.917-69.487-30.396-97.148-14.788-22.127-33.788-41.126-55.915-55.915-27.661-18.479-59.277-26.543-97.148-30.396-36.966-3.759-83.255-3.759-141.675-3.759h-3.55c-58.419 0-104.708 0-141.673 3.759-37.873 3.853-69.49 11.917-97.148 30.396-22.129 14.788-41.129 33.788-55.916 55.915-18.48 27.661-26.543 59.277-30.396 97.148-3.761 36.966-3.76 83.255-3.76 141.675v259.549c0 58.42-0.001 104.709 3.76 141.673 3.852 37.873 11.916 69.49 30.396 97.148 14.786 22.129 33.786 41.129 55.916 55.916 27.657 18.48 59.275 26.543 97.148 30.396 36.965 3.761 83.254 3.76 141.673 3.76zM375.029 839.236c-32.812-3.338-52.68-9.656-68.068-19.939-15.141-10.117-28.141-23.117-38.258-38.258-10.282-15.389-16.6-35.256-19.939-68.068-3.392-33.347-3.431-76.381-3.431-136.971v-256c0-60.591 0.039-103.625 3.431-136.969 3.338-32.815 9.656-52.681 19.939-68.070 10.117-15.142 23.117-28.143 38.258-38.259 15.389-10.283 35.256-16.602 68.068-19.938 33.347-3.392 76.38-3.43 136.971-3.43s103.625 0.038 136.969 3.43c32.815 3.337 52.681 9.655 68.070 19.938 15.142 10.116 28.143 23.117 38.259 38.259 10.283 15.39 16.602 35.255 19.938 68.070 3.392 33.344 3.43 76.378 3.43 136.969v256c0 60.59-0.038 103.623-3.43 136.971-3.337 32.812-9.655 52.68-19.938 68.068-10.116 15.141-23.117 28.141-38.259 38.258-15.39 10.282-35.255 16.6-68.070 19.939-33.344 3.392-76.378 3.431-136.969 3.431s-103.623-0.039-136.971-3.431zM394.667 149.333c0-17.673 14.327-32 32-32h170.667c17.673 0 32 14.327 32 32s-14.327 32-32 32h-170.667c-17.673 0-32-14.327-32-32zM512 704c-23.565 0-42.667 19.103-42.667 42.667s19.102 42.667 42.667 42.667c23.565 0 42.667-19.103 42.667-42.667s-19.102-42.667-42.667-42.667z" />
<glyph unicode="&#xe928;" d="M384 746.667h256c94.257 0 170.667-76.41 170.667-170.667v-256c0-94.257-76.41-170.667-170.667-170.667h-256c-94.257 0-170.667 76.41-170.667 170.667v256c0 94.257 76.41 170.667 170.667 170.667z" />
<glyph unicode="&#xe929;" d="M474.603 906.673c-31.851 0.031-56.794 0.055-78.517-8.951-19.043-7.896-35.67-20.67-48.206-37.036-14.3-18.668-20.704-42.778-28.88-73.56l-1.48-5.565-4.143-15.536c-77.108-28.669-132.043-102.93-132.043-190.022v-255.999c0-87.091 54.935-161.353 132.043-190.025l4.143-15.535 1.48-5.564c8.177-30.784 14.58-54.895 28.88-73.562 12.536-16.367 29.163-29.141 48.206-37.035 21.722-9.007 46.666-8.981 78.517-8.951h74.795c31.851-0.030 56.794-0.055 78.515 8.951 19.046 7.893 35.674 20.668 48.209 37.035 14.298 18.667 20.702 42.778 28.877 73.562l1.481 5.564 4.143 15.535c77.111 28.672 132.045 102.933 132.045 190.025v255.999c0 87.092-54.933 161.353-132.045 190.022l-4.143 15.536-1.481 5.565c-8.175 30.782-14.579 54.892-28.877 73.56-12.535 16.366-29.163 29.14-48.209 37.036-21.722 9.007-46.665 8.983-78.515 8.951h-74.795zM383.019 117.338c0.327 0 0.654 0 0.981 0h256c0.329 0 0.653 0 0.981 0-7.667-28.105-10.859-36.821-15.667-43.098-5.7-7.441-13.257-13.248-21.914-16.836-8.371-3.473-19.29-4.066-59.763-4.066h-63.275c-40.474 0-51.392 0.593-59.764 4.066-8.656 3.588-16.214 9.395-21.912 16.832-4.811 6.281-8.003 14.997-15.668 43.102zM625.314 821.768c4.809-6.28 8-14.996 15.667-43.101l-0.981 0.002-256.981-0.002c7.665 28.105 10.857 36.821 15.668 43.101 5.698 7.439 13.256 13.245 21.912 16.835 8.372 3.472 19.29 4.067 59.764 4.067h63.275c40.474 0 51.392-0.595 59.763-4.067 8.657-3.589 16.213-9.396 21.914-16.835zM245.333 576.003c0 76.584 62.083 138.667 138.667 138.667h256c76.582 0 138.667-62.083 138.667-138.667v-255.999c0-76.587-62.084-138.667-138.667-138.667h-256c-76.584 0-138.667 62.080-138.667 138.667v255.999zM544 533.336v-68.206l49.749-33.169c14.707-9.805 18.679-29.67 8.875-44.378-9.801-14.703-29.67-18.675-44.373-8.875l-64 42.667c-8.905 5.935-14.251 15.927-14.251 26.628v85.332c0 17.673 14.327 32 32 32s32-14.327 32-32z" />
<glyph unicode="&#xe92a;" d="M657.975 362.667c61.568 0 92.352 0 118.097 12.019 13.111 6.123 25.088 14.426 35.426 24.55 20.292 19.883 31.104 48.708 52.719 106.355 28.019 74.716 42.027 112.073 31.808 141.266-5.090 14.549-14.029 27.447-25.865 37.324-23.744 19.818-63.642 19.818-143.437 19.818h-509.558l62.844-172.821c29.623-81.463 44.434-122.193 77.499-145.353s76.407-23.159 163.088-23.159h137.378zM469.286 106.671c0 47.125-38.204 85.333-85.332 85.333s-85.333-38.208-85.333-85.333c0-47.13 38.205-85.333 85.333-85.333s85.332 38.204 85.332 85.333zM810.62 106.671c0 47.125-38.204 85.333-85.333 85.333-47.125 0-85.333-38.208-85.333-85.333 0-47.13 38.208-85.333 85.333-85.333 47.13 0 85.333 38.204 85.333 85.333z" />
<glyph unicode="&#xe92b;" d="M64.003 800h0.001c17.103 0 23.028-0.052 28.116-0.645 32.129-3.743 60.212-23.414 74.709-52.33 2.296-4.58 4.37-10.131 10.216-26.208l73.566-202.306c14.276-39.262 25.897-71.219 38.236-96.094 4.951-9.98 10.21-19.238 16.087-27.75h-48.935c-64.801 0-117.333-52.531-117.333-117.333s52.532-117.333 117.333-117.333h23.46c-8.18-16-12.794-34.129-12.794-53.333 0-64.802 52.532-117.333 117.333-117.333s117.333 52.531 117.333 117.333c0 19.204-4.612 37.333-12.796 53.333h132.258c-8.183-16-12.796-34.129-12.796-53.333 0-64.802 52.531-117.333 117.333-117.333s117.333 52.531 117.333 117.333c0 19.204-4.612 37.333-12.796 53.333h66.129c17.673 0 32 14.327 32 32s-14.327 32-32 32h-640c-29.455 0-53.333 23.876-53.333 53.333 0 29.453 23.878 53.333 53.333 53.333h250.897c3.895-0.004 7.863-0.004 11.904-0.004h140.523c29.679 0 53.854 0 73.754 1.609 20.693 1.668 38.976 5.201 56.576 13.419 16.393 7.65 31.364 18.027 44.284 30.686 13.875 13.594 23.603 29.478 32.431 48.265 8.495 18.074 16.981 40.708 27.405 68.501l0.452 1.212 0.657 1.749c13.453 35.87 24.461 65.231 30.622 89.24 6.315 24.614 8.973 48.653 0.772 72.084-7.002 20.005-19.294 37.74-35.567 51.321-19.059 15.907-42.5 21.856-67.763 24.587-24.644 2.664-56 2.663-94.315 2.662h-489.006l-3.102 8.532c-4.923 13.545-8.305 22.848-12.481 31.178-24.161 48.193-70.968 80.978-124.516 87.217-9.257 1.079-19.155 1.077-33.566 1.076l-23.297-0.003c-17.673-0.002-31.998-14.331-31.996-32.004s14.331-31.998 32.004-31.996l21.332 0.003zM597.747 394.662c-0.141 0.004-0.277 0.004-0.414 0.004h-87.671c-38.221 0.026-65.506 0.269-87.102 2.692-22.807 2.56-36.081 7.275-46.647 14.673-10.565 7.403-19.533 18.266-29.732 38.827-10.557 21.282-20.994 49.843-36.052 91.255l-47.231 129.884h463.869c40.636 0 68.51-0.044 89.301-2.292 20.57-2.224 28.949-6.183 33.634-10.095 7.398-6.173 12.983-14.234 16.166-23.328 2.018-5.762 2.782-14.999-2.359-35.040-5.197-20.257-14.942-46.37-29.21-84.418-10.987-29.299-18.59-49.506-25.852-64.964-7.057-15.006-12.881-23.479-19.298-29.769-7.753-7.595-16.738-13.824-26.573-18.415-8.141-3.802-18.121-6.281-34.65-7.616-17.024-1.374-38.613-1.399-69.905-1.399h-60.275zM384 160c29.455 0 53.333-23.881 53.333-53.333 0-29.457-23.878-53.333-53.333-53.333s-53.333 23.876-53.333 53.333c0 29.453 23.878 53.333 53.333 53.333zM725.333 160c29.457 0 53.333-23.881 53.333-53.333 0-29.457-23.876-53.333-53.333-53.333s-53.333 23.876-53.333 53.333c0 29.453 23.876 53.333 53.333 53.333z" />
<glyph unicode="&#xe92c;" d="M213.333 362.667v426.667l112.521 22.504c64.868 12.974 132.244 1.303 188.97-32.732 77.965-46.778 174.421-50.482 255.744-9.821l40.098 20.049v-426.667l-40.098-20.049c-81.323-40.661-177.779-36.958-255.744 9.822-56.725 34.035-124.102 45.705-188.97 32.73l-112.521-22.502z" />
<glyph unicode="&#xe92d;" d="M213.333 906.667c17.673 0 32-14.327 32-32v-46.3l74.246 14.849c72.675 14.535 148.159 1.46 211.711-36.671 68.578-41.149 153.429-44.407 224.969-8.64l40.098 20.049c9.92 4.96 21.7 4.43 31.134-1.401s15.177-16.131 15.177-27.221v-426.667c0-12.122-6.848-23.202-17.69-28.621l-40.098-20.049c-91.106-45.555-199.172-41.404-286.519 11.004-49.899 29.939-109.167 40.205-166.229 28.791l-86.797-17.361v-315.098c0-17.673-14.327-32-32-32s-32 14.327-32 32v853.333c0 17.673 14.327 32 32 32zM245.333 401.702l74.246 14.848c72.675 14.532 148.159 1.459 211.711-36.672 68.578-41.148 153.429-44.407 224.969-8.64l22.409 11.204v355.203c-89.775-42.324-194.94-37.201-280.307 14.020-49.899 29.94-109.167 40.206-166.229 28.794l-86.797-17.359v-361.397z" />
<glyph unicode="&#xe92e;" d="M256 277.333v512l409.011-146.076c80.469-28.738 120.704-43.107 122.402-71.238s-36.514-47.236-112.939-85.449l-418.475-209.237z" />
<glyph unicode="&#xe92f;" d="M256 906.667c17.673 0 32-14.327 32-32v-62.782l390.251-139.375c38.127-13.614 70.050-25.015 92.407-36.782 21.888-11.522 46.75-29.585 48.695-61.779s-20.565-53.116-40.909-67.192c-20.779-14.37-51.098-29.53-87.309-47.633l-403.136-201.566v-236.224c0-17.673-14.327-32-32-32s-32 14.327-32 32v853.333c0 17.673 14.327 32 32 32zM288 329.109l372.164 186.082c39.177 19.589 65.31 32.745 81.869 44.201 7.599 5.254 11.081 8.732 12.608 10.648-1.749 1.718-5.623 4.751-13.794 9.053-17.822 9.381-45.35 19.296-86.596 34.028l-366.251 130.804v-414.816zM755.959 568.37c0.030 0-0.026 0.163-0.26 0.486 0.115-0.326 0.23-0.487 0.26-0.486zM755.55 571.343c0.192 0.349 0.23 0.517 0.201 0.514s-0.128-0.177-0.201-0.514z" />
<glyph unicode="&#xe930;" d="M832 746.667h-640c-19.825 0-29.738 0-37.981-1.64-33.851-6.733-60.313-33.195-67.046-67.046-1.64-8.243-1.64-18.156-1.64-37.981v-99.137c0-4.158 3.371-7.529 7.529-7.529h35.137c47.128 0 85.333-38.204 85.333-85.333s-38.205-85.333-85.333-85.333h-35.137c-4.158 0-7.529-3.371-7.529-7.531v-99.136c0-19.827 0-29.739 1.64-37.982 6.733-33.852 33.195-60.314 67.046-67.046 8.243-1.638 18.156-1.638 37.981-1.638h640c19.827 0 29.739 0 37.982 1.638 33.852 6.733 60.314 33.195 67.046 67.046 1.638 8.243 1.638 18.155 1.638 37.982v99.136c0 4.16-3.371 7.531-7.531 7.531h-35.136c-47.13 0-85.333 38.204-85.333 85.333s38.204 85.333 85.333 85.333h35.136c4.16 0 7.531 3.371 7.531 7.529v99.137c0 19.825 0 29.738-1.638 37.981-6.733 33.851-33.195 60.313-67.046 67.046-8.243 1.64-18.155 1.64-37.982 1.64z" />
<glyph unicode="&#xe931;" d="M192.002 778.665l-3.127 0.001c-16.756 0.008-29.684 0.015-41.097-2.256-46.545-9.258-82.93-45.643-92.188-92.188-2.27-11.413-2.264-24.341-2.256-41.097l0.001-3.127v-99.137c0-21.833 17.698-39.527 39.529-39.527h35.137c29.455 0 53.333-23.881 53.333-53.333 0-29.457-23.878-53.333-53.333-53.333h-35.137c-21.832 0-39.529-17.698-39.529-39.531v-99.136l-0.001-3.127c-0.008-16.755-0.015-29.683 2.256-41.097 9.258-46.545 45.643-82.931 92.188-92.19 11.413-2.27 24.341-2.266 41.097-2.257v0l3.127 0.004 643.125-0.004c16.755-0.009 29.683-0.013 41.097 2.257 46.545 9.259 82.931 45.645 92.19 92.19 2.27 11.413 2.266 24.337 2.257 41.097l-0.004 3.127v99.136c0 21.833-17.694 39.531-39.526 39.531h-35.14c-29.453 0-53.333 23.876-53.333 53.333 0 29.453 23.881 53.333 53.333 53.333h35.14c21.833 0 39.526 17.694 39.526 39.527v99.137l0.004 3.127c0.009 16.756 0.013 29.684-2.257 41.097-9.259 46.545-45.645 82.93-92.19 92.188-11.413 2.27-24.337 2.264-41.097 2.256l-643.125-0.001zM416.002 181.333v96c0 17.673-14.327 32-32 32s-32-14.327-32-32v-96h-160c-21.359 0-27.366 0.154-31.738 1.024-21.157 4.207-37.695 20.745-41.903 41.903-0.87 4.373-1.025 10.377-1.025 31.74v74.667h10.667c64.801 0 117.333 52.531 117.333 117.333 0 64.798-52.532 117.331-117.333 117.331h-10.667v74.667c0 21.359 0.155 27.366 1.025 31.738 4.208 21.157 20.747 37.695 41.903 41.903 4.373 0.87 10.379 1.025 31.738 1.025h160v-96c0-17.673 14.327-32 32-32s32 14.327 32 32v96h415.998c21.363 0 27.366-0.155 31.74-1.025 21.158-4.208 37.696-20.747 41.903-41.903 0.87-4.373 1.024-10.379 1.024-31.738v-74.667h-10.667c-64.798 0-117.333-52.533-117.333-117.331 0-64.802 52.535-117.333 117.333-117.333h10.667v-74.667c0-21.363-0.154-27.366-1.024-31.74-4.207-21.158-20.745-37.696-41.903-41.903-4.373-0.87-10.377-1.024-31.74-1.024h-415.998zM416.002 490.667v-85.333c0-17.677-14.327-32-32-32s-32 14.323-32 32v85.333c0 17.673 14.327 32 32 32s32-14.327 32-32z" />
<glyph unicode="&#xe932;" glyph-name="brackets" d="M341.339 863.999c17.673 0 32-14.327 32-32s-14.327-32-32-32c-22.421 0-48.118-0.378-68.118-8.378-9.272-3.709-15.703-8.486-19.944-14.358-4.096-5.672-7.942-14.825-7.942-30.598v-183.467c0-57.006-46.601-94.079-79.538-113.838l-2.291-1.361 2.291-1.361c32.937-19.763 79.538-56.836 79.538-113.839v-183.467c0-15.774 3.845-24.926 7.942-30.596 4.241-5.875 10.672-10.65 19.944-14.362 20-8 45.697-8.375 68.118-8.375 17.673 0 32-14.327 32-32s-14.327-32-32-32h-1.632c-20.623-0.013-57.794-0.030-90.254 12.954-17.396 6.959-34.966 18.18-48.058 36.309-13.237 18.33-20.059 41.173-20.059 68.070v183.467c0 19.793-17.401 40.32-48.465 58.961-14.1 8.457-28.45 14.938-39.421 19.328-5.438 2.172-9.93 3.789-12.994 4.838-1.53 0.525-2.696 0.905-3.437 1.143l-0.879 0.277-0.015 0.004c-13.527 4.066-22.79 16.521-22.79 30.647 0 14.114 9.251 26.564 22.764 30.639l0.041 0.009 0.88 0.277c0.742 0.239 1.908 0.619 3.437 1.143 3.064 1.050 7.556 2.667 12.994 4.843 10.972 4.386 25.321 10.867 39.421 19.328 31.064 18.637 48.465 39.165 48.465 58.96v183.467c0 26.895 6.822 49.742 20.059 68.070 13.093 18.127 30.663 29.351 48.058 36.309 32.46 12.983 69.631 12.966 90.254 12.956l1.632-0.001zM682.671 799.999c-17.673 0-32 14.327-32 32s14.327 32 32 32l1.634 0.001c20.621 0.010 57.792 0.028 90.253-12.956 17.395-6.958 34.965-18.181 48.060-36.308 13.235-18.328 20.058-41.175 20.058-68.070v-183.467c0-19.796 17.399-40.323 48.465-58.96 14.097-8.461 28.446-14.942 39.415-19.328 5.44-2.176 9.933-3.793 12.996-4.843 1.527-0.525 2.697-0.905 3.435-1.143l0.883-0.277 0.013-0.004c13.525-4.062 22.788-16.516 22.788-30.643 0-14.118-9.25-26.564-22.763-30.639l-0.038-0.013-0.098-0.030-0.785-0.247c-0.738-0.235-1.907-0.619-3.435-1.143-3.063-1.050-7.556-2.667-12.996-4.838-10.97-4.39-25.318-10.871-39.415-19.328-31.066-18.641-48.465-39.168-48.465-58.961v-183.467c0-26.897-6.822-49.741-20.058-68.070-13.094-18.129-30.665-29.35-48.060-36.309-32.461-12.983-69.632-12.966-90.253-12.954h-1.634c-17.673 0-32 14.327-32 32s14.327 32 32 32c22.421 0 48.119 0.375 68.117 8.375 9.276 3.712 15.706 8.486 19.947 14.362 4.096 5.67 7.94 14.822 7.94 30.596v183.467c0 57.003 46.601 94.076 79.535 113.839l2.291 1.361-2.291 1.361c-32.934 19.759-79.535 56.832-79.535 113.838v183.467c0 15.773-3.844 24.925-7.94 30.598-4.241 5.872-10.671 10.649-19.947 14.358-19.998 8-45.696 8.378-68.117 8.378zM512.004 575.999c-23.561 0-42.667 19.103-42.667 42.667s19.106 42.667 42.667 42.667c23.565 0 42.667-19.102 42.667-42.667s-19.102-42.667-42.667-42.667zM554.671 448c0 23.565-19.102 42.667-42.667 42.667-23.561 0-42.667-19.102-42.667-42.667s19.106-42.667 42.667-42.667c23.565 0 42.667 19.102 42.667 42.667zM512.004 234.667c-23.561 0-42.667 19.102-42.667 42.667s19.106 42.667 42.667 42.667c23.565 0 42.667-19.102 42.667-42.667s-19.102-42.667-42.667-42.667z" />
<glyph unicode="&#xe933;" d="M640.081 149.333h-223.59c-57.931 0-86.896 0-112.357 11.712-25.461 11.708-44.311 33.702-82.013 77.687l-36.571 42.667c-68.144 79.501-102.217 119.249-102.217 166.601s34.072 87.101 102.216 166.602v0l36.571 42.667c37.701 43.984 56.552 65.977 82.013 77.687s54.426 11.71 112.357 11.71h223.59c120.678 0 181.018 0 218.509-37.49s37.491-97.83 37.491-218.51v-85.333c0-120.678 0-181.018-37.491-218.509s-97.83-37.491-218.509-37.491zM426.748 362.671c47.13 0 85.333 38.204 85.333 85.333 0 47.125-38.204 85.332-85.333 85.332s-85.334-38.206-85.334-85.332c0-47.13 38.205-85.333 85.334-85.333z" />
<glyph unicode="&#xe934;" d="M436.087 778.665l-5.551 0.001c-52.466 0.012-86.31 0.020-117.711-10.502-13.82-4.631-27.101-10.739-39.61-18.218-28.425-16.995-50.444-42.696-84.579-82.54l-4.663-5.442c-32.984-38.481-59.213-69.080-78.051-95.8-19.357-27.456-32.676-53.183-37.916-82.448-4.229-23.625-4.229-47.812 0-71.433 5.24-29.269 18.559-54.993 37.916-82.453 18.838-26.718 45.066-57.318 78.050-95.795v-0.004l4.664-5.44c34.135-39.846 56.154-65.545 84.579-82.539 12.509-7.479 25.79-13.589 39.61-18.219 31.402-10.522 65.245-10.517 117.711-10.505l168.623 0.004c58.419 0 104.708-0.004 141.675 3.759 37.871 3.853 69.491 11.917 97.148 30.396 22.127 14.784 41.126 33.783 55.915 55.915 18.479 27.657 26.543 59.277 30.396 97.148 3.759 36.966 3.759 83.255 3.759 141.675v3.546c0 58.419 0 104.71-3.759 141.676-3.853 37.873-11.917 69.49-30.396 97.148-14.788 22.129-33.788 41.129-55.915 55.916-27.657 18.48-59.277 26.543-97.148 30.396-36.966 3.761-83.255 3.76-141.675 3.76h-163.072zM333.158 707.48c20.285 6.797 42.978 7.185 102.929 7.185h161.297c60.591 0 103.625-0.039 136.973-3.431 32.811-3.338 52.676-9.656 68.066-19.939 15.142-10.117 28.143-23.117 38.259-38.258 10.283-15.389 16.602-35.256 19.938-68.068 3.392-33.347 3.43-76.382 3.43-136.969 0-60.591-0.038-103.625-3.43-136.973-3.337-32.811-9.655-52.681-19.938-68.066-10.116-15.142-23.117-28.143-38.259-38.259-15.39-10.283-35.255-16.602-68.066-19.938-33.348-3.392-76.382-3.43-136.973-3.43h-161.297c-59.951 0-82.644 0.384-102.929 7.181-9.456 3.17-18.542 7.351-27.101 12.467-18.362 10.978-33.425 27.955-72.439 73.472-34.274 39.987-58.503 68.305-75.389 92.258-16.566 23.497-24.279 40.393-27.225 56.849-2.894 16.162-2.894 32.713 0 48.875 2.946 16.457 10.659 33.353 27.225 56.853 16.886 23.949 41.115 52.268 75.389 92.254 39.014 45.517 54.077 62.494 72.439 73.472 8.559 5.117 17.646 9.297 27.101 12.465zM373.385 448c0 29.457 23.878 53.333 53.332 53.333 29.457 0 53.333-23.876 53.333-53.333 0-29.453-23.876-53.333-53.333-53.333-29.454 0-53.332 23.881-53.332 53.333zM426.718 565.334c-64.8 0-117.332-52.532-117.332-117.334s52.532-117.333 117.332-117.333c64.802 0 117.333 52.531 117.333 117.333s-52.531 117.334-117.333 117.334z" />
<glyph unicode="&#xe935;" d="M256 704h512c94.257 0 170.667-76.41 170.667-170.667v-298.667c0-94.257-76.41-170.667-170.667-170.667h-512c-94.257 0-170.667 76.41-170.667 170.667v298.667c0 94.257 76.41 170.667 170.667 170.667z" />
<glyph unicode="&#xe936;" d="M377.041 735.989c8.495 0.011 17.228 0.011 26.205 0.011h217.507c8.977 0 17.711 0 26.206-0.011-14.443 61.162-69.385 106.678-134.959 106.678s-120.517-45.516-134.959-106.678zM311.749 735.385c-27.752-0.627-52.252-1.893-73.871-4.448-43.988-5.199-80.199-16.115-110.448-40.94-10.262-8.422-19.671-17.831-28.093-28.093-24.824-30.249-35.74-66.46-40.94-110.448-5.065-42.848-5.064-97.005-5.064-165.37v-4.173c0-68.365-0.001-122.522 5.064-165.372 5.199-43.985 16.115-80.196 40.94-110.447 8.422-10.261 17.831-19.669 28.093-28.092 30.249-24.823 66.46-35.742 110.448-40.939 42.845-5.065 97.003-5.065 165.362-5.065h217.522c68.361 0 122.517 0 165.363 5.065 43.985 5.197 80.196 16.115 110.447 40.939 10.261 8.422 19.669 17.83 28.092 28.092 24.823 30.251 35.742 66.462 40.939 110.447 5.065 42.846 5.065 97.003 5.065 165.363v4.19c0 68.361 0 122.517-5.065 165.361-5.197 43.988-16.115 80.199-40.939 110.448-8.422 10.262-17.83 19.671-28.092 28.093-30.251 24.824-66.462 35.74-110.447 40.94-21.623 2.556-46.123 3.822-73.873 4.448-15.083 97.027-98.995 171.282-200.252 171.282-101.255 0-185.167-74.255-200.251-171.282zM245.39 667.379c38.652 4.569 89.027 4.621 159.943 4.621h213.333c70.916 0 121.293-0.052 159.945-4.621 37.943-4.485 60.403-12.94 77.359-26.855 7.019-5.762 13.457-12.2 19.221-19.221 13.914-16.956 22.37-39.413 26.854-77.359 0.892-7.556 1.613-15.559 2.193-24.076l-0.269-0.119-1.451-0.627c-1.323-0.567-3.349-1.425-6.037-2.53-5.376-2.214-13.393-5.423-23.718-9.297-20.663-7.748-50.509-18.129-86.886-28.527-21.692-6.195-45.611-12.369-71.211-17.984v29.884c0 17.673-14.327 32-32 32s-32-14.327-32-32v-41.958c-43.844-6.895-90.769-11.375-138.667-11.375s-94.821 4.48-138.667 11.375v41.958c0 17.673-14.327 32-32 32s-32-14.327-32-32v-29.884c-25.601 5.615-49.519 11.789-71.209 17.984-36.381 10.398-66.225 20.779-86.889 28.527-10.326 3.874-18.342 7.083-23.718 9.297-2.688 1.105-4.714 1.963-6.037 2.53l-1.452 0.627-0.269 0.119c0.581 8.516 1.302 16.52 2.195 24.076 4.486 37.946 12.94 60.403 26.855 77.359 5.762 7.021 12.2 13.459 19.221 19.221 16.956 13.915 39.413 22.37 77.359 26.855zM650.667 383.97v-21.303c0-17.673 14.327-32 32-32s32 14.327 32 32v32.678c32.375 6.703 62.276 14.31 88.789 21.888 38.289 10.935 69.777 21.888 91.78 30.14 4.066 1.523 7.812 2.957 11.217 4.279 0.205-20.258 0.213-42.684 0.213-67.652 0-70.916-0.051-121.293-4.621-159.945-4.484-37.943-12.941-60.403-26.854-77.359-5.764-7.019-12.203-13.457-19.221-19.221-16.956-13.914-39.415-22.37-77.359-26.854-38.652-4.57-89.028-4.621-159.945-4.621h-213.333c-70.917 0-121.291 0.051-159.943 4.621-37.946 4.484-60.403 12.941-77.359 26.854-7.021 5.764-13.459 12.203-19.221 19.221-13.915 16.956-22.369 39.415-26.855 77.359-4.569 38.652-4.621 89.028-4.621 159.945 0 24.969 0.006 47.394 0.214 67.652 3.406-1.323 7.151-2.756 11.217-4.279 22.003-8.252 53.492-19.204 91.778-30.14 26.513-7.578 56.416-15.185 88.791-21.888v-32.678c0-17.673 14.327-32 32-32s32 14.327 32 32v21.303c43.865-6.485 90.684-10.637 138.667-10.637s94.801 4.151 138.667 10.637z" />
<glyph unicode="&#xe937;" d="M397.107 64h229.786c74.078 0 111.113 0 141.491 12.083 35.853 14.255 65.818 40.243 85.005 73.719 16.256 28.365 21.491 65.028 31.966 138.359v0.004c3.388 23.697 5.082 35.55 2.061 44.924-3.563 11.051-11.473 20.173-21.909 25.259-8.853 4.318-20.826 4.318-44.766 4.318h-61.154c-30.49 0-45.734 0-59.405-4.779-8.35-2.918-16.196-7.117-23.253-12.446-11.558-8.725-20.015-21.406-36.928-46.775s-25.37-38.050-36.928-46.775c-7.057-5.329-14.903-9.527-23.253-12.446-13.67-4.779-28.915-4.779-59.405-4.779h-16.828c-30.49 0-45.734 0-59.405 4.779-8.35 2.918-16.196 7.117-23.254 12.446-11.56 8.725-20.016 21.406-36.928 46.775s-25.368 38.050-36.928 46.775c-7.059 5.329-14.904 9.527-23.253 12.446-13.672 4.779-28.916 4.779-59.405 4.779h-61.156c-23.942 0-35.912 0-44.764-4.318-10.436-5.086-18.347-14.208-21.909-25.259-3.021-9.374-1.329-21.227 2.057-44.928 10.476-73.331 15.714-109.995 31.97-138.359 19.186-33.476 49.149-59.465 85.003-73.719 30.378-12.083 67.415-12.083 141.491-12.083z" />
<glyph unicode="&#xe938;" d="M507.14 864h-2.086c-63.561 0-114.163 0.001-154.592-4.892-41.734-5.051-76.264-15.657-105.986-39.382s-47.716-55.045-61.891-94.622c-13.731-38.339-24.945-87.683-39.031-149.662l-27.096-119.22c-5.672-24.956-8.92-39.245-11.038-53.747-3.754-25.702-4.816-51.721-3.169-77.641 0.93-14.626 3.002-29.137 6.622-54.468l1.061-7.437c7.644-53.594 12.533-87.872 26.151-116.164 24.23-50.334 68.162-88.439 121.419-105.306 29.933-9.481 64.56-9.472 118.697-9.459h271.623c54.135-0.013 88.764-0.021 118.694 9.459 53.257 16.866 97.19 54.972 121.421 105.306 13.619 28.292 18.505 62.571 26.15 116.164v0l0.853 5.986 0.209 1.455c3.618 25.331 5.692 39.838 6.622 54.464 1.647 25.92 0.585 51.938-3.17 77.641-2.116 14.498-5.367 28.791-11.038 53.743l-0.324 1.434-26.773 117.79c-14.084 61.979-25.297 111.324-39.031 149.662-14.174 39.577-32.166 70.898-61.888 94.622s-64.252 34.33-105.988 39.382c-40.427 4.893-91.029 4.893-154.59 4.892h-11.831zM284.403 769.708c16.986 13.558 38.476 21.594 73.75 25.864 36.138 4.374 82.867 4.428 148.988 4.428h9.745c66.121 0 112.849-0.055 148.988-4.428 35.273-4.27 56.764-12.306 73.749-25.864s29.585-32.733 41.566-66.184c12.275-34.27 22.682-79.825 37.338-144.303l26.308-115.753c5.833-25.673 8.508-37.53 10.227-48.802l-100.028 0.004c-26.005 0.021-46.481 0.038-65.399-6.575-11.477-4.011-22.268-9.783-31.97-17.109-15.996-12.075-27.341-29.12-41.749-50.769l-2.526-3.802c-18.185-27.273-23.381-34.304-29.581-38.985-4.412-3.332-9.314-5.956-14.532-7.778-7.339-2.564-16.073-2.987-48.849-2.987h-16.828c-32.777 0-41.515 0.422-48.849 2.987-5.218 1.822-10.121 4.446-14.532 7.778-6.199 4.681-11.396 11.712-29.58 38.985l-2.529 3.797c-14.408 21.653-25.752 38.699-41.746 50.773-9.706 7.326-20.493 13.099-31.973 17.109-18.916 6.613-39.392 6.596-65.399 6.575l-100.027-0.004c1.72 11.273 4.394 23.13 10.228 48.802l26.308 115.753c14.654 64.478 25.063 110.033 37.338 144.303 11.98 33.451 24.579 52.625 41.565 66.184zM166.015 330.667h98.412c32.777 0 41.512-0.422 48.847-2.987 5.218-1.822 10.121-4.446 14.533-7.778 6.202-4.681 11.398-11.712 29.58-38.985l2.529-3.797c14.408-21.653 25.752-38.699 41.746-50.773 9.706-7.326 20.493-13.099 31.972-17.109 18.918-6.613 39.394-6.596 65.399-6.575h25.958c26.005-0.021 46.481-0.038 65.399 6.575 11.477 4.011 22.263 9.783 31.97 17.109 15.996 12.075 27.341 29.12 41.745 50.769l2.53 3.802c18.185 27.273 23.381 34.304 29.581 38.985 4.412 3.332 9.314 5.956 14.532 7.778 7.334 2.564 16.073 2.987 48.849 2.987h98.411c-0.034-0.593-0.068-1.182-0.107-1.775-0.751-11.827-2.432-23.748-6.315-50.927-8.806-61.649-12.548-85.231-21.316-103.441-16.576-34.441-46.635-60.51-83.076-72.051-19.268-6.101-43.14-6.473-105.417-6.473h-259.534c-62.274 0-86.149 0.371-105.417 6.473-36.439 11.541-66.498 37.611-83.076 72.051-8.766 18.21-12.508 41.792-21.315 103.441-3.883 27.179-5.563 39.1-6.315 50.927-0.038 0.593-0.073 1.182-0.108 1.775z" />
<glyph unicode="&#xe939;" d="M298.667 832h426.667c94.257 0 170.667-76.41 170.667-170.667v-426.667c0-94.257-76.41-170.667-170.667-170.667h-426.667c-94.257 0-170.667 76.41-170.667 170.667v426.667c0 94.257 76.41 170.667 170.667 170.667z" />
<glyph unicode="&#xe93a;" d="M469.333 864h-2.406c-78.412 0.001-140.519 0.001-189.125-6.534-50.023-6.726-90.512-20.896-122.442-52.826s-46.1-72.419-52.826-122.442c-6.535-48.606-6.534-110.713-6.534-189.125v-90.146c-0.001-78.413-0.001-140.518 6.534-189.124 6.726-50.022 20.896-90.513 52.826-122.445 31.93-31.927 72.419-46.097 122.442-52.826 48.606-6.532 110.712-6.532 189.121-6.532h90.155c78.409 0 140.514 0 189.12 6.532 50.022 6.729 90.513 20.898 122.445 52.826 31.927 31.932 46.097 72.422 52.826 122.445 6.532 48.606 6.532 110.711 6.532 189.12v90.155c0 78.409 0 140.515-6.532 189.121-6.729 50.023-20.898 90.512-52.826 122.442-31.932 31.93-72.422 46.1-122.445 52.826-48.606 6.535-110.711 6.534-189.124 6.534h-87.74zM200.614 759.386c18.057 18.057 42.789 28.88 85.715 34.651 43.847 5.895 101.646 5.963 183.004 5.963h85.333c81.357 0 139.157-0.068 183.006-5.963 42.923-5.771 67.657-16.594 85.713-34.651s28.881-42.789 34.65-85.715c5.897-43.847 5.965-101.646 5.965-183.004v-85.333c0-81.357-0.068-139.157-5.965-183.006-5.769-42.923-16.593-67.657-34.65-85.713s-42.79-28.881-85.713-34.65c-43.849-5.897-101.649-5.965-183.006-5.965h-85.333c-81.358 0-139.157 0.068-183.004 5.965-42.927 5.769-67.658 16.593-85.715 34.65s-28.88 42.79-34.651 85.713c-5.895 43.849-5.963 101.649-5.963 183.006v85.333c0 81.358 0.068 139.157 5.963 183.004 5.771 42.927 16.594 67.658 34.651 85.715zM544 618.667v-138.667h138.667c17.673 0 32-14.327 32-32s-14.327-32-32-32h-138.667v-138.667c0-17.673-14.327-32-32-32s-32 14.327-32 32v138.667h-138.668c-17.673 0-32 14.327-32 32s14.327 32 32 32h138.668v138.667c0 17.673 14.327 32 32 32s32-14.327 32-32z" />
<glyph unicode="&#xe93b;" glyph-name="power" d="M544 874.667v-426.667c0-17.673-14.327-32-32-32s-32 14.327-32 32v426.667c0 17.673 14.327 32 32 32s32-14.327 32-32zM290.75 721.791c-14.737-11.924-28.493-25.015-41.127-39.132-55.757-62.296-89.623-144.485-89.623-234.659 0-194.402 157.596-352 352-352 194.402 0 352 157.598 352 352 0 90.174-33.865 172.362-89.621 234.659-12.638 14.116-26.394 27.208-41.131 39.132-13.734 11.117-15.863 31.267-4.745 45.005s31.266 15.864 45.005 4.747c17.399-14.081 33.643-29.536 48.559-46.201 65.852-73.577 105.933-170.817 105.933-277.341 0-229.751-186.249-416-416-416s-416 186.249-416 416c0 106.525 40.081 203.764 105.934 277.341 14.916 16.665 31.156 32.12 48.557 46.201 13.739 11.117 33.888 8.992 45.005-4.747s8.992-33.888-4.746-45.005z" />
<glyph unicode="&#xe93c;" d="M853.333 746.667h-554.667c-80.453 0-120.68 0-145.673-24.994s-24.994-65.22-24.994-145.673v-341.333h512v298.667c0 47.128 38.204 85.333 85.333 85.333h85.333c47.13 0 85.333 38.205 85.333 85.333 0 23.564-19.102 42.667-42.667 42.667z" />
<glyph unicode="&#xe93d;" d="M298.667 778.667h-2.22c-38.335 0.001-70.301 0.002-95.678-3.409-26.786-3.601-50.969-11.523-70.403-30.957s-27.355-43.617-30.957-70.403c-3.412-25.377-3.411-57.344-3.409-95.679v-311.552h-27.733c-31.812 0-57.6-25.788-57.6-57.6 0-74.227 60.173-134.4 134.4-134.4h667.823c38.332 0 70.298-0.004 95.676 3.409 26.786 3.601 50.97 11.524 70.4 30.959 19.435 19.43 27.358 43.614 30.959 70.4 3.413 25.378 3.409 57.344 3.409 95.676v175.113c0 38.332 0.004 70.298-3.409 95.675-3.601 26.786-11.524 50.969-30.959 70.403-14.626 14.63-31.949 22.736-51.046 27.386-0.102 8.826-0.32 16.759-0.806 23.849-0.922 13.53-2.91 26.31-8.043 38.7-11.908 28.75-34.752 51.592-63.501 63.5-12.39 5.132-25.169 7.122-38.699 8.045-12.996 0.887-28.83 0.886-47.795 0.886h-470.409zM900.036 141.504c-20.608-2.769-48.239-2.837-89.37-2.837s-68.762 0.068-89.37 2.837c-19.691 2.65-28.117 7.223-33.677 12.783s-10.133 13.986-12.783 33.677c-2.769 20.608-2.837 48.239-2.837 89.37v170.667c0 41.131 0.068 68.762 2.837 89.37 2.65 19.689 7.223 28.115 12.783 33.676s13.986 10.135 33.677 12.782c20.608 2.771 48.239 2.839 89.37 2.839s68.762-0.068 89.37-2.839c19.691-2.647 28.117-7.222 33.677-12.782s10.133-13.987 12.783-33.676c2.769-20.608 2.837-48.239 2.837-89.37v-170.667c0-41.131-0.068-68.762-2.837-89.37-2.65-19.691-7.223-28.117-12.783-33.677s-13.986-10.133-33.677-12.783zM145.067 138.667c-36.724 0-66.88 28.117-70.113 64h534.296c0.495-8.273 1.19-16.017 2.159-23.232 1.946-14.46 5.15-28.164 10.743-40.768h-477.086zM608 275.115v-8.448h-448v309.333c0 41.131 0.068 68.76 2.839 89.37 2.647 19.689 7.222 28.116 12.782 33.676s13.987 10.135 33.676 12.782c20.61 2.771 48.239 2.839 89.37 2.839h469.333c20.318 0 33.954-0.017 44.514-0.738 10.27-0.701 15.27-1.959 18.564-3.322 13.065-5.413 23.45-15.796 28.864-28.864 1.361-3.292 2.62-8.293 3.319-18.564 0.26-3.834 0.431-8.073 0.542-12.891-15.479 0.38-32.461 0.38-50.918 0.379h-4.437c-38.336 0.001-70.302 0.002-95.68-3.409-26.786-3.601-50.97-11.523-70.4-30.957-19.435-19.433-27.358-43.617-30.959-70.403-3.413-25.377-3.409-57.343-3.409-95.679v-175.104zM810.667 448c-23.565 0-42.667 19.102-42.667 42.667s19.102 42.667 42.667 42.667c23.565 0 42.667-19.102 42.667-42.667s-19.102-42.667-42.667-42.667z" />
<glyph unicode="&#xe93e;" d="M256 832h512c94.257 0 170.667-76.41 170.667-170.667v-426.667c0-94.257-76.41-170.667-170.667-170.667h-512c-94.257 0-170.667 76.41-170.667 170.667v426.667c0 94.257 76.41 170.667 170.667 170.667z" />
<glyph unicode="&#xe93f;" d="M424.259 864h175.48c78.413 0 140.518 0.001 189.124-6.534 50.022-6.726 90.513-20.896 122.445-52.826 31.927-31.93 46.097-72.419 52.826-122.442 6.532-48.606 6.532-110.713 6.532-189.121v-90.155c0-78.409 0-140.514-6.532-189.12-6.729-50.022-20.898-90.513-52.826-122.445-31.932-31.927-72.422-46.097-122.445-52.826-48.606-6.532-110.711-6.532-189.12-6.532h-175.486c-78.41 0-140.517 0-189.123 6.532-50.024 6.729-90.512 20.898-122.442 52.826-31.93 31.932-46.1 72.422-52.826 122.445-6.535 48.606-6.534 110.711-6.534 189.124v0 90.146c-0.001 78.412-0.001 140.519 6.534 189.125 6.726 50.023 20.896 90.512 52.826 122.442s72.419 46.1 122.442 52.826c48.606 6.535 110.713 6.534 189.123 6.534h0.001zM243.663 794.037c-42.927-5.772-67.658-16.595-85.715-34.652s-28.88-42.788-34.651-85.715c-5.895-43.847-5.963-101.646-5.963-183.004v-85.333c0-81.357 0.068-139.157 5.963-183.006 5.771-42.923 16.594-67.657 34.651-85.713s42.789-28.881 85.715-34.65c43.847-5.897 101.646-5.965 183.004-5.965h170.667c81.357 0 139.157 0.068 183.006 5.965 42.923 5.769 67.657 16.593 85.713 34.65s28.881 42.79 34.65 85.713c5.897 43.849 5.965 101.649 5.965 183.006v85.333c0 81.358-0.068 139.156-5.965 183.004-5.769 42.927-16.593 67.658-34.65 85.715s-42.79 28.88-85.713 34.652c-43.849 5.895-101.649 5.963-183.006 5.963h-170.667c-81.358 0-139.157-0.068-183.004-5.963zM276.039 555.961c-12.497-12.497-12.497-32.756 0-45.254l105.375-105.378-105.377-105.374c-12.497-12.497-12.497-32.759 0-45.252 12.497-12.497 32.758-12.497 45.255-0.004l128.006 128.004c5.999 6.003 9.374 14.14 9.374 22.626s-3.375 16.627-9.374 22.63l-128.003 128.001c-12.497 12.497-32.758 12.497-45.255 0zM554.667 309.333h170.667c17.673 0 32-14.327 32-32s-14.327-32-32-32h-170.667c-17.673 0-32 14.327-32 32s14.327 32 32 32z" />
<glyph unicode="&#xe940;" d="M170.667 832h682.667v-256c0-120.678 0-181.018-37.491-218.509s-97.83-37.491-218.509-37.491h-170.667c-120.68 0-181.019 0-218.51 37.491s-37.49 97.83-37.49 218.509v256z" />
<glyph unicode="&#xe941;" d="M53.333 832c0 17.673 14.327 32 32 32h853.333c17.673 0 32-14.327 32-32s-14.327-32-32-32h-53.333v-226.341c0-58.352 0-105.384-4.971-142.376-5.163-38.404-16.209-70.737-41.894-96.422-25.681-25.681-58.014-36.727-96.418-41.89-36.992-4.971-84.023-4.971-142.374-4.971v0 0 0 0 0h-55.676v-77.884l197.798-118.677c15.155-9.092 20.066-28.749 10.974-43.904s-28.749-20.066-43.904-10.974l-164.868 98.923v-71.484c0-17.673-14.327-32-32-32s-32 14.327-32 32v71.484l-164.87-98.923c-15.154-9.092-34.811-4.181-43.904 10.974s-4.179 34.812 10.976 43.904l197.797 118.677v77.884h-55.676c-58.35 0-105.382 0-142.372 4.971-38.405 5.163-70.74 16.209-96.422 41.89-25.682 25.685-36.728 58.018-41.891 96.422-4.973 36.992-4.972 84.023-4.972 142.376v226.341h-53.333c-17.673 0-32 14.327-32 32zM512 352h85.333c61.244 0 103.957 0.068 136.188 4.399 31.309 4.211 47.885 11.908 59.695 23.718s19.507 28.386 23.718 59.695c4.331 32.23 4.399 74.944 4.399 136.188v224h-618.667v-224c0-61.244 0.068-103.957 4.401-136.188 4.209-31.309 11.908-47.885 23.717-59.695s28.387-19.507 59.695-23.718c32.228-4.331 74.942-4.399 136.187-4.399h85.333zM373.333 576v-85.333c0-17.673-14.327-32-32-32s-32 14.327-32 32v85.333c0 17.673 14.327 32 32 32s32-14.327 32-32zM512 693.333c-17.673 0-32-14.327-32-32v-170.667c0-17.673 14.327-32 32-32s32 14.327 32 32v170.667c0 17.673-14.327 32-32 32zM714.667 618.667v-128c0-17.673-14.327-32-32-32s-32 14.327-32 32v128c0 17.673 14.327 32 32 32s32-14.327 32-32z" />
<glyph unicode="&#xe942;" d="M170.667 704h682.667c47.128 0 85.333-38.205 85.333-85.333v-341.333c0-47.128-38.205-85.333-85.333-85.333h-682.667c-47.128 0-85.333 38.205-85.333 85.333v341.333c0 47.128 38.205 85.333 85.333 85.333z" />
<glyph unicode="&#xe943;" d="M256 736h-2.219c-38.335 0.001-70.302 0.002-95.679-3.409-26.786-3.601-50.969-11.523-70.403-30.957s-27.355-43.617-30.957-70.403c-3.412-25.377-3.411-57.344-3.409-95.679v-175.104c-0.001-38.336-0.002-70.302 3.409-95.68 3.601-26.786 11.523-50.97 30.957-70.4 19.433-19.435 43.617-27.358 70.403-30.959 25.377-3.413 57.344-3.409 95.678-3.409h516.438c38.336 0 70.302-0.004 95.68 3.409 26.786 3.601 50.97 11.524 70.4 30.959 19.435 19.43 27.358 43.614 30.959 70.4 3.413 25.378 3.409 57.344 3.409 95.68v175.104c0 38.335 0.004 70.302-3.409 95.68-3.601 26.786-11.524 50.969-30.959 70.403-19.43 19.433-43.614 27.355-70.4 30.957-25.378 3.412-57.344 3.411-95.68 3.409h-514.219zM132.954 656.379c5.56 5.56 13.987 10.135 33.676 12.782 20.61 2.771 48.239 2.839 89.37 2.839h512c41.131 0 68.762-0.068 89.37-2.839 19.691-2.647 28.117-7.222 33.677-12.782s10.133-13.987 12.783-33.676c2.769-20.61 2.837-48.239 2.837-89.37v-170.667c0-41.131-0.068-68.762-2.837-89.37-2.65-19.691-7.223-28.117-12.783-33.677s-13.986-10.133-33.677-12.783c-20.608-2.769-48.239-2.837-89.37-2.837h-512c-41.131 0-68.76 0.068-89.37 2.837-19.689 2.65-28.116 7.223-33.676 12.783s-10.135 13.986-12.782 33.677c-2.771 20.608-2.839 48.239-2.839 89.37v170.667c0 41.131 0.068 68.76 2.839 89.37 2.647 19.689 7.222 28.116 12.782 33.676zM426.667 394.667c-17.673 0-32-14.327-32-32s14.327-32 32-32h170.667c17.673 0 32 14.327 32 32s-14.327 32-32 32h-170.667zM298.667 362.667c0 23.565-19.102 42.667-42.667 42.667s-42.667-19.102-42.667-42.667c0-23.565 19.103-42.667 42.667-42.667s42.667 19.102 42.667 42.667zM768 320c-23.565 0-42.667 19.102-42.667 42.667s19.102 42.667 42.667 42.667c23.565 0 42.667-19.102 42.667-42.667s-19.102-42.667-42.667-42.667zM810.667 533.333c0 23.564-19.102 42.667-42.667 42.667s-42.667-19.103-42.667-42.667c0-23.565 19.102-42.667 42.667-42.667s42.667 19.102 42.667 42.667zM256 490.667c-23.564 0-42.667 19.102-42.667 42.667s19.103 42.667 42.667 42.667c23.564 0 42.667-19.103 42.667-42.667s-19.102-42.667-42.667-42.667zM469.333 533.333c0 23.564-19.102 42.667-42.667 42.667s-42.667-19.103-42.667-42.667c0-23.565 19.103-42.667 42.667-42.667s42.667 19.102 42.667 42.667zM597.333 490.667c-23.565 0-42.667 19.102-42.667 42.667s19.102 42.667 42.667 42.667c23.565 0 42.667-19.103 42.667-42.667s-19.102-42.667-42.667-42.667z" />
<glyph unicode="&#xe944;" d="M213.333 378.18c0-174.545 133.718-314.18 298.667-314.18s298.667 139.635 298.667 314.18c0 314.183-298.667 453.82-298.667 453.82 0-85.333 42.667-384-85.333-384-85.333 0-85.333 85.333-85.333 213.333 0 0-128-108.606-128-283.153z" />
<glyph unicode="&#xe945;" d="M525.551 860.988l-13.551-28.988c13.551 28.988 13.568 28.982 13.581 28.975l0.034-0.016 0.355-0.166 0.841-0.404c0.7-0.34 1.677-0.82 2.914-1.441 2.47-1.242 5.978-3.051 10.372-5.435 8.785-4.766 21.137-11.848 35.874-21.321 29.423-18.913 68.634-47.551 107.917-86.58 78.592-78.080 158.78-199.227 158.78-367.43 0-190.741-146.603-346.18-330.667-346.18s-330.667 155.439-330.667 346.18c0 95.279 34.942 172.093 69.212 224.537 17.17 26.276 34.356 46.728 47.35 60.707 6.508 7 11.995 12.411 15.948 16.15 1.978 1.871 3.574 3.325 4.725 4.355 0.576 0.515 1.041 0.923 1.387 1.225l0.429 0.371 0.201 0.172 0.023 0.020c0.010 0.009 0.020 0.017 20.724-24.383l-20.703 24.4c9.507 8.067 22.833 9.877 34.147 4.639s18.556-16.571 18.556-29.039c0-65.997 0.298-113.896 9.435-145.877 4.311-15.087 9.719-23.095 15.051-27.541 4.901-4.083 13.035-7.915 28.847-7.915 15.808 0 27.87 7.612 38.455 29.781 11.298 23.677 17.677 58.69 20.275 100.215 2.551 40.832 1.293 84.725-0.691 124.406-0.631 12.667-1.361 25.168-2.052 37.036-1.404 24.092-2.654 45.577-2.654 60.562 0 10.941 5.589 21.123 14.818 26.997 9.233 5.874 20.826 6.625 30.733 1.991zM310.475 577.135c-2.11-3.037-4.232-6.18-6.354-9.428-29.73-45.497-58.788-110.257-58.788-189.527 0-158.349 120.832-282.18 266.667-282.18s266.667 123.831 266.667 282.18c0 145.984-69.146 251.744-139.887 322.028-33.122 32.905-66.304 57.71-92.215 74.762 0.67-11.436 1.391-23.927 2.061-37.372 2.018-40.319 3.426-87.092 0.644-131.594-2.735-43.808-9.69-88.794-26.389-123.785-17.417-36.497-48.021-66.219-96.213-66.219-26.854 0-50.72 6.835-69.819 22.75-18.668 15.556-29.26 36.881-35.616 59.127-6.446 22.558-9.402 49.611-10.756 79.258z" />
<glyph unicode="&#xe946;" d="M184.276 540.689c15.776 133.636 23.665 200.454 66.689 242.584 3.923 3.842 8.030 7.492 12.305 10.938 46.883 37.788 114.166 37.788 248.73 37.788 134.562 0 201.847 0 248.73-37.788 4.275-3.446 8.384-7.096 12.305-10.938 43.025-42.13 50.914-108.948 66.688-242.584l11.255-95.339c20.996-177.856 31.497-266.786-19.422-324.070-50.914-57.28-140.463-57.28-319.556-57.28s-268.64 0-319.558 57.28c-50.917 57.284-40.419 146.214-19.421 324.070l11.255 95.339z" />
<glyph unicode="&#xe947;" d="M512.009 864h-2.086c-65.515 0-117.556 0.001-158.959-4.95-42.636-5.099-77.839-15.802-107.767-39.924-5.077-4.092-9.953-8.427-14.612-12.989-27.464-26.893-42.221-60.598-52.283-102.342-9.771-40.537-15.872-92.221-23.552-157.283l-0.244-2.070-11.555-97.883c-10.245-86.771-18.334-155.285-17.17-209.148 1.195-55.305 12.142-100.698 44.754-137.387s76.412-52.885 131.192-60.553c53.355-7.471 122.346-7.471 209.719-7.471h5.124c87.373 0 156.365 0 209.719 7.471 54.784 7.667 98.581 23.863 131.196 60.553 32.61 36.689 43.558 82.082 44.753 137.387 1.165 53.862-6.925 122.377-17.169 209.152l-0.303 2.543-11.499 97.405c-7.68 65.063-13.781 116.747-23.552 157.284-10.061 41.744-24.819 75.45-52.284 102.342-4.659 4.562-9.536 8.897-14.613 12.989-29.926 24.121-65.131 34.825-107.767 39.924-41.399 4.951-93.444 4.95-158.959 4.95v0h-2.082zM283.359 769.297c16.957 13.667 38.836 21.857 75.203 26.206 37.162 4.444 85.376 4.497 153.447 4.497 68.066 0 116.284-0.053 153.446-4.497 36.365-4.349 58.244-12.539 75.2-26.206 3.473-2.8 6.81-5.766 10.001-8.887 15.556-15.237 26.257-36.005 34.842-71.612 8.768-36.384 14.473-84.261 22.455-151.86l11.255-95.338c10.611-89.882 18.099-153.946 17.041-202.807-1.033-47.949-10.295-75.657-28.599-96.252-18.308-20.591-44.74-33.041-92.237-39.689-48.401-6.78-112.9-6.852-203.405-6.852s-155.008 0.073-203.409 6.852c-47.496 6.647-73.928 19.098-92.233 39.689-18.305 20.595-27.567 48.303-28.603 96.252-1.056 48.862 6.433 112.926 17.044 202.807l11.255 95.338c7.981 67.599 13.687 115.476 22.456 151.86 8.583 35.607 19.281 56.375 34.842 71.612 3.188 3.122 6.525 6.088 9.998 8.887zM416.012 576v85.333c0 17.673-14.327 32-32 32s-32-14.327-32-32v-85.333c0-88.367 71.634-160 160.001-160 88.363 0 160 71.633 160 160v85.333c0 17.673-14.327 32-32 32s-32-14.327-32-32v-85.333c0-53.018-42.982-96-96-96-53.022 0-96.001 42.982-96.001 96z" />
<glyph unicode="&#xe948;" d="M554.667 746.667c0-47.128 38.204-85.333 85.333-85.333s85.333 38.205 85.333 85.333c0 47.128-38.204 85.333-85.333 85.333s-85.333-38.205-85.333-85.333zM554.667 149.333c0-47.13 38.204-85.333 85.333-85.333s85.333 38.204 85.333 85.333c0 47.13-38.204 85.333-85.333 85.333s-85.333-38.204-85.333-85.333zM384 533.333c47.13 0 85.333-38.204 85.333-85.333s-38.204-85.333-85.333-85.333c-47.128 0-85.333 38.204-85.333 85.333s38.205 85.333 85.333 85.333z" />
<glyph unicode="&#xe949;" d="M640 864c53.709 0 98.987-36.085 112.917-85.333h143.083c17.673 0 32-14.327 32-32s-14.327-32-32-32h-143.083c-13.931-49.248-59.209-85.333-112.917-85.333-64.802 0-117.333 52.532-117.333 117.333s52.531 117.333 117.333 117.333zM693.333 746.667c0 29.455-23.876 53.333-53.333 53.333s-53.333-23.878-53.333-53.333c0-29.455 23.876-53.333 53.333-53.333s53.333 23.878 53.333 53.333zM128 778.667h298.667c17.673 0 32-14.327 32-32s-14.327-32-32-32h-298.667c-17.673 0-32 14.327-32 32s14.327 32 32 32zM128 181.333h298.667c17.673 0 32-14.327 32-32s-14.327-32-32-32h-298.667c-17.673 0-32 14.327-32 32s14.327 32 32 32zM640 266.667c53.709 0 98.987-36.083 112.917-85.333h143.083c17.673 0 32-14.327 32-32s-14.327-32-32-32h-143.083c-13.931-49.25-59.209-85.333-112.917-85.333-64.802 0-117.333 52.531-117.333 117.333s52.531 117.333 117.333 117.333zM640 96c29.457 0 53.333 23.876 53.333 53.333s-23.876 53.333-53.333 53.333c-29.457 0-53.333-23.876-53.333-53.333s23.876-53.333 53.333-53.333zM96 448c0-17.673 14.327-32 32-32h143.084c13.929-49.25 59.209-85.333 112.916-85.333 64.802 0 117.333 52.531 117.333 117.333s-52.531 117.333-117.333 117.333c-53.708 0-98.988-36.087-112.916-85.333h-143.084c-17.673 0-32-14.327-32-32zM565.333 448c0-17.673 14.327-32 32-32h298.667c17.673 0 32 14.327 32 32s-14.327 32-32 32h-298.667c-17.673 0-32-14.327-32-32zM330.667 448c0 29.457 23.878 53.333 53.333 53.333s53.333-23.876 53.333-53.333c0-29.457-23.878-53.333-53.333-53.333s-53.333 23.876-53.333 53.333z" />
<glyph unicode="&#xe94a;" d="M597.333 448c0-94.257-76.41-170.667-170.667-170.667s-170.667 76.41-170.667 170.667c0 94.257 76.41 170.667 170.667 170.667s170.667-76.41 170.667-170.667z" />
<glyph unicode="&#xe94b;" d="M426.667 821.333c-206.186 0-373.333-167.147-373.333-373.333s167.147-373.333 373.333-373.333h170.667c206.187 0 373.333 167.147 373.333 373.333s-167.147 373.333-373.333 373.333h-170.667zM117.333 448c0 170.84 138.493 309.333 309.333 309.333h170.667c170.842 0 309.333-138.493 309.333-309.333 0-170.842-138.492-309.333-309.333-309.333h-170.667c-170.84 0-309.333 138.492-309.333 309.333zM288 448c0 76.582 62.083 138.667 138.667 138.667 76.582 0 138.667-62.084 138.667-138.667s-62.084-138.667-138.667-138.667c-76.584 0-138.667 62.084-138.667 138.667zM426.667 650.667c-111.93 0-202.667-90.737-202.667-202.667 0-111.932 90.737-202.667 202.667-202.667 111.932 0 202.667 90.735 202.667 202.667 0 111.93-90.735 202.667-202.667 202.667z" />
<glyph unicode="&#xe94c;" glyph-name="sort-text" d="M725.333 864c-64.802 0-117.333-52.532-117.333-117.333v-170.667c0-17.673 14.327-32 32-32s32 14.327 32 32v64h106.667v-64c0-17.673 14.327-32 32-32s32 14.327 32 32v170.667c0 64.801-52.531 117.333-117.333 117.333zM778.667 746.667v-42.667h-106.667v42.667c0 29.455 23.876 53.333 53.333 53.333s53.333-23.878 53.333-53.333zM298.667 736c-17.673 0-32-14.327-32-32v-434.743l-73.373 73.37c-12.497 12.497-32.758 12.497-45.255 0s-12.497-32.755 0-45.252l128-128c12.497-12.497 32.758-12.497 45.255 0l127.999 128c12.497 12.497 12.497 32.755 0 45.252s-32.757 12.497-45.254 0l-73.373-73.37v434.743c0 17.673-14.327 32-32 32zM608 405.333c0-17.673 14.327-32 32-32h110.874l-137.498-206.251c-6.549-9.818-7.159-22.443-1.591-32.849 5.572-10.406 16.414-16.9 28.215-16.9h170.667c17.673 0 32 14.327 32 32s-14.327 32-32 32h-110.874l137.498 206.251c6.549 9.818 7.159 22.443 1.591 32.849-5.572 10.406-16.414 16.9-28.215 16.9h-170.667c-17.673 0-32-14.327-32-32z" />
<glyph unicode="&#xe94d;" d="M553.442 471.023l208.286 115.715c59.388 32.993 89.084 49.489 89.084 74.595s-29.696 41.602-89.084 74.595l46.49-25.826c42.803-23.781 64.209-35.672 75.994-55.704 11.789-20.032 11.789-44.517 11.789-93.486v-225.824c0-48.969 0-73.455-11.789-93.487-11.785-20.032-33.19-31.923-75.994-55.701l-213.333-118.519c-40.516-22.507-60.77-33.762-82.884-33.762s-42.368 11.255-82.884 33.762l-213.332 118.519c-42.807 23.778-64.209 35.669-75.997 55.701s-11.787 44.518-11.787 93.487v225.824c0 48.969 0 73.453 11.787 93.486s33.19 31.923 75.997 55.704l46.487 25.826c-59.388-32.993-89.081-49.489-89.081-74.595s29.693-41.602 89.081-74.595l208.287-115.715c20.258-11.255 30.387-16.883 41.442-16.883s21.184 5.628 41.442 16.883z" />
<glyph unicode="&#xe94e;" d="M490.261 824.617c10.539 4.6 16.614 5.769 21.739 5.769s11.2-1.169 21.739-5.769c11.166-4.873 24.819-12.419 45.602-23.966l58.765-32.646-323.101-179.501-128.052 67.792c10.31 6.878 24.137 14.595 44.372 25.837l213.335 118.519c20.783 11.547 34.436 19.093 45.602 23.966zM719.287 796.118l-110.123 61.178c-19.183 10.658-35.516 19.732-49.822 25.977-15.249 6.654-30.353 11.112-47.343 11.112-16.986 0-32.094-4.458-47.343-11.112-14.306-6.245-30.639-15.319-49.821-25.977l-215.913-119.952c-20.278-11.264-37.517-20.841-51.014-30.208-14.376-9.977-26.64-21.108-35.701-36.507s-12.835-31.526-14.575-48.938c-1.633-16.347-1.633-36.067-1.632-59.264v-228.846c-0.001-23.198-0.001-42.918 1.632-59.264 1.74-17.412 5.514-33.54 14.575-48.939 9.061-15.403 21.325-26.53 35.701-36.51 13.498-9.365 30.737-18.944 51.015-30.208l215.915-119.953c19.184-10.658 35.513-19.729 49.819-25.975 15.249-6.652 30.357-11.11 47.343-11.11 16.99 0 32.094 4.459 47.343 11.11 14.306 6.246 30.639 15.322 49.822 25.98l215.915 119.949c20.275 11.268 37.517 20.843 51.012 30.208 14.374 9.98 26.641 21.107 35.699 36.51 9.062 15.398 12.838 31.526 14.579 48.939 1.63 16.346 1.63 36.066 1.63 59.264v228.846c0 23.197 0 42.917-1.63 59.264-1.741 17.412-5.517 33.539-14.579 48.938-9.058 15.4-21.325 26.531-35.699 36.507-13.495 9.367-30.737 18.944-51.012 30.208l-105.237 58.464c-0.183 0.105-0.371 0.208-0.555 0.31zM704 731.398l88.674-49.265c20.237-11.242 34.065-18.959 44.373-25.837l-325.047-172.084-129.516 68.567 321.516 178.619zM160 560.916c0 15.123 0.013 27.124 0.303 37.072l319.697-169.252v-352.499c-9.267 4.651-20.48 10.863-35.341 19.119l-213.335 118.519c-21.955 12.198-36.366 20.245-46.927 27.575-9.974 6.921-14.305 11.75-17.031 16.384-2.726 4.629-4.845 10.765-6.052 22.844-1.278 12.791-1.315 29.295-1.315 54.413v225.824zM579.341 95.356c-14.861-8.256-26.074-14.468-35.341-19.119v352.499l319.697 169.252c0.29-9.948 0.303-21.949 0.303-37.072v-225.824c0-25.118-0.038-41.621-1.314-54.413-1.207-12.079-3.328-18.214-6.054-22.844-2.722-4.634-7.057-9.463-17.028-16.384-10.56-7.33-24.973-15.377-46.929-27.575l-213.333-118.519z" />
<glyph unicode="&#xe94f;" d="M664.533 317.653l70.046 42.027c47.206 28.322 76.087 79.334 76.087 134.387v39.266h-597.333v-39.266c0-55.053 28.883-106.065 76.087-134.387l70.046-42.027c40.547-24.329 62.090-70.98 54.316-117.623l-8.74-52.437c-11.016-66.095 39.953-126.259 106.957-126.259s117.973 60.164 106.957 126.259l-8.738 52.437c-7.774 46.643 13.769 93.295 54.315 117.623z" />
<glyph unicode="&#xe950;" d="M298.211 906.667h427.579c64.55 0 116.877-52.328 116.877-116.878v-295.722c0-66.291-34.782-127.718-91.622-161.826l-70.046-42.027c-29.274-17.566-44.83-51.247-39.215-84.924l8.738-52.437c14.268-85.598-51.742-163.52-138.522-163.52-86.778 0-152.788 77.922-138.522 163.52l8.74 52.437c5.612 33.677-9.941 67.358-39.216 84.924l-70.046 42.027c-56.843 34.108-91.624 95.535-91.624 161.826v295.722c0 64.55 52.328 116.878 116.878 116.878zM778.667 565.333v224.456c0 29.204-23.676 52.878-52.877 52.878h-139.123v-53.333c0-17.673-14.327-32-32-32s-32 14.327-32 32v53.333h-106.667v-138.667c0-17.673-14.327-32-32-32s-32 14.327-32 32v138.667h-53.789c-29.204 0-52.878-23.674-52.878-52.878v-224.456h533.333zM245.333 501.333v-7.266c0-43.81 22.985-84.407 60.552-106.948l70.046-42.027c51.82-31.091 79.352-90.714 69.415-150.323l-8.738-52.437c-7.765-46.588 28.16-88.998 75.392-88.998s83.157 42.411 75.392 88.998l-8.738 52.437c-9.937 59.61 17.596 119.232 69.414 150.323l70.046 42.027c37.568 22.541 60.553 63.138 60.553 106.948v7.266h-533.333z" />
<glyph unicode="&#xe951;" glyph-name="at" d="M160 448c0-194.402 157.596-352 352-352 56.256 0 109.342 13.171 156.425 36.574 15.829 7.863 35.034 1.408 42.897-14.417 7.868-15.825 1.412-35.034-14.413-42.897-55.74-27.699-118.554-43.26-184.909-43.26-229.751 0-416 186.249-416 416s186.249 416 416 416c229.751 0 416-186.249 416-416 0-43.763-5.291-93.487-28.339-133.116-24.811-42.671-67.785-69.551-131.661-69.551-36.019 0-66.321 14.844-87.117 39.467-7.211 8.542-13.111 18.044-17.715 28.207-37.116-41.532-91.089-67.674-151.168-67.674-111.93 0-202.667 90.735-202.667 202.667 0 111.93 90.737 202.667 202.667 202.667 53.641 0 102.413-20.84 138.667-54.864v22.864c0 17.673 14.327 32 32 32s32-14.327 32-32v-245.346c0-20.292 6.127-36.582 15.117-47.232 8.542-10.112 20.902-16.755 38.217-16.755 42.79 0 63.817 16.192 76.339 37.722 14.285 24.572 19.661 60.177 19.661 100.945 0 194.404-157.598 352-352 352-194.404 0-352-157.596-352-352zM650.667 448c0 76.582-62.084 138.667-138.667 138.667s-138.667-62.084-138.667-138.667c0-76.582 62.084-138.667 138.667-138.667s138.667 62.084 138.667 138.667z" />
<glyph unicode="&#xe952;" d="M186.793 535.572l34.909 128c16.495 60.483 24.743 90.725 47.679 108.243s54.282 17.519 116.974 17.519h210.979c80.452 0 120.678 0 145.673-24.994s24.994-65.22 24.994-145.673v-227.972c0-34.88 0-52.322-6.494-68.002-6.498-15.684-18.829-28.015-43.494-52.681l-231.138-231.138c-11.23-11.23-26.462-17.54-42.347-17.54-45.981 0-74.808 49.673-51.995 89.596l119.468 209.071h-160.555c-102.615 0-153.923 0-179.537 33.536s-12.115 83.038 14.885 182.036z" />
<glyph unicode="&#xe953;" d="M597.338 757.333c41.131 0 68.762-0.068 89.37-2.839 19.686-2.647 28.113-7.222 33.677-12.782 5.559-5.56 10.133-13.987 12.779-33.676 2.773-20.609 2.842-48.239 2.842-89.37v-227.972c0-37.491-0.567-47.326-4.062-55.757-3.49-8.435-10.044-15.787-36.553-42.295l-231.142-231.142c-5.227-5.227-12.322-8.166-19.716-8.166-21.411 0-34.835 23.13-24.212 41.719l119.47 209.071c5.658 9.903 5.619 22.071-0.107 31.936-5.726 9.869-16.273 15.94-27.678 15.94h-160.556c-52.324 0-88.030 0.081-114.043 3.861-25.203 3.661-34.598 9.941-40.064 17.101-5.466 7.155-9.056 17.873-5.957 43.149 3.198 26.091 12.516 60.561 26.283 111.040l34.909 128.001c8.45 30.982 14.103 51.516 20.224 66.67 5.801 14.365 10.776 20.567 16.007 24.562s12.522 7.163 27.908 8.98c16.23 1.917 37.528 1.969 69.642 1.969h210.98zM765.636 786.967c-19.43 19.433-43.614 27.355-70.4 30.956-25.378 3.412-57.344 3.411-95.68 3.41h-215.052c-29.766 0.001-54.869 0.002-75.296-2.411-21.694-2.563-41.543-8.154-59.249-21.677s-28.323-31.202-36.503-51.458c-7.702-19.072-14.307-43.29-22.137-72.007v0l-36.067-132.246c-12.931-47.407-23.561-86.379-27.392-117.637-3.997-32.602-1.529-63.407 18.62-89.783 20.148-26.381 49.216-36.868 81.724-41.591 31.16-4.527 71.557-4.523 120.694-4.523h107.963l-92.11-161.195c-35.004-61.252 9.227-137.472 79.779-137.472 24.371 0 47.74 9.681 64.973 26.914l234.786 234.782c21.099 21.056 37.794 37.722 46.78 59.413 8.99 21.696 8.964 45.286 8.939 75.093l-0.004 5.158v230.192c0 38.335 0 70.301-3.409 95.678-3.601 26.786-11.524 50.969-30.959 70.403zM864.004 362.667v426.667c0 17.673 14.327 32 32 32s32-14.327 32-32v-426.667c0-17.673-14.327-32-32-32s-32 14.327-32 32z" />
<glyph unicode="&#xe954;" d="M170.667 704h682.667v-384c0-120.678 0-181.018-37.491-218.509s-97.83-37.491-218.509-37.491h-170.667c-120.68 0-181.019 0-218.51 37.491s-37.49 97.83-37.49 218.509v384z" />
<glyph unicode="&#xe955;" d="M149.333 864h725.333c53.018 0 96-42.981 96-96 0-49.414-37.333-90.108-85.333-95.414v-354.928c0-58.351 0-105.382-4.971-142.374-5.163-38.404-16.209-70.737-41.89-96.422-25.685-25.681-58.018-36.727-96.422-41.89-36.992-4.971-84.023-4.971-142.374-4.971h-175.35c-58.351 0-105.383 0-142.374 4.971-38.405 5.163-70.74 16.209-96.422 41.89-25.682 25.685-36.728 58.018-41.891 96.422-4.973 36.992-4.972 84.023-4.972 142.374v354.928c-48 5.306-85.333 46-85.333 95.414 0 53.019 42.981 96 96 96zM821.333 672h-618.667v-352c0-61.244 0.068-103.957 4.401-136.188 4.209-31.309 11.908-47.885 23.717-59.695s28.388-19.507 59.695-23.718c32.228-4.331 74.943-4.399 136.187-4.399h170.667c61.244 0 103.957 0.068 136.188 4.399 31.309 4.211 47.885 11.908 59.695 23.718s19.507 28.386 23.718 59.695c4.331 32.23 4.399 74.944 4.399 136.188v352zM853.333 736h21.333c17.673 0 32 14.327 32 32s-14.327 32-32 32h-725.333c-17.673 0-32-14.327-32-32s14.327-32 32-32h704zM352 533.333c0-17.673 14.327-32 32-32h256c17.673 0 32 14.327 32 32s-14.327 32-32 32h-256c-17.673 0-32-14.327-32-32z" />
<glyph unicode="&#xe956;" d="M213.333 575.998c0 49.504 12.044 96.196 33.362 137.304l421.349-421.351c-16.99-29.67-28.045-61.756-28.045-96.149v38.865c0 0-64-42.667-127.991-42.667-63.996 0-128.009 42.667-128.009 42.667v-38.754c-0.048 67.307-42.409 125.747-88.733 174.588-50.781 53.542-81.934 125.879-81.934 205.498z" />
<glyph unicode="&#xe957;" d="M107.961 897.294c-12.497 12.497-32.758 12.497-45.255 0s-12.497-32.758 0-45.255l145.431-145.431c-17.255-40.096-26.804-84.27-26.804-130.608 0-88.132 34.522-168.269 90.716-227.52 45.593-48.068 79.951-98.586 79.951-152.678v-46.468c0-88.367 71.634-160 160-160s160 71.633 160 160v46.468c0 13.713 2.202 27.243 6.298 40.644l237.743-237.739c12.497-12.497 32.755-12.497 45.252 0s12.497 32.755 0 45.252l-853.332 853.335zM245.333 576c0 28.241 4.38 55.421 12.49 80.922l371.066-371.068c-4.045-8.751-7.633-17.775-10.65-27.063-1.387-0.841-3.102-1.856-5.116-3.008-6.268-3.58-15.296-8.397-26.121-13.205-22.208-9.873-49.451-18.577-74.995-18.577-25.549 0-52.796 8.704-75.008 18.577-10.825 4.809-19.856 9.626-26.124 13.21-2.014 1.148-3.729 2.163-5.115 3.004-17.123 52.757-53.070 97.668-87.277 133.734-45.367 47.834-73.152 112.375-73.152 183.475zM416 181.918c25.429-10.825 59.977-21.918 96.009-21.918 36.023 0 70.566 11.089 95.991 21.918v-32.585c0-53.018-42.982-96-96-96s-96 42.982-96 96v32.585zM359.64 794.887c-14.495-10.111-34.442-6.556-44.553 7.939s-6.557 34.442 7.939 44.553c53.573 37.368 118.761 59.287 188.974 59.287 182.622 0 330.667-148.044 330.667-330.667 0-70.212-21.918-135.403-59.285-188.975-10.112-14.494-30.059-18.048-44.557-7.936-14.494 10.108-18.048 30.054-7.936 44.553 30.118 43.179 47.778 95.659 47.778 152.358 0 147.276-119.39 266.667-266.667 266.667-56.7 0-109.178-17.66-152.36-47.779z" />
<glyph unicode="&#xe958;" d="M170.667 832h682.667c47.128 0 85.333-38.205 85.333-85.333v-341.333c0-47.128-38.205-85.333-85.333-85.333h-682.667c-47.128 0-85.333 38.205-85.333 85.333v341.333c0 47.128 38.205 85.333 85.333 85.333z" />
<glyph unicode="&#xe959;" d="M253.781 864h516.437c38.336 0.001 70.302 0.002 95.68-3.409 26.786-3.601 50.97-11.523 70.4-30.957 19.435-19.433 27.358-43.617 30.959-70.403 3.413-25.377 3.409-57.344 3.409-95.68v-175.104c0-38.336 0.004-70.302-3.409-95.68-3.601-26.786-11.524-50.97-30.959-70.4-19.43-19.435-43.614-27.358-70.4-30.959-25.378-3.413-57.344-3.409-95.68-3.409v0h-516.438c-38.335 0-70.301-0.004-95.678 3.409-26.786 3.601-50.969 11.524-70.403 30.959-19.433 19.43-27.355 43.614-30.957 70.4-3.412 25.378-3.411 57.344-3.409 95.68v175.104c-0.001 38.335-0.002 70.302 3.409 95.679 3.601 26.786 11.523 50.969 30.957 70.403s43.617 27.355 70.403 30.957c25.377 3.412 57.344 3.411 95.679 3.409zM166.63 797.161c-19.689-2.647-28.116-7.222-33.676-12.782s-10.135-13.987-12.782-33.676c-2.771-20.61-2.839-48.239-2.839-89.37v-170.667c0-41.131 0.068-68.762 2.839-89.37 2.647-19.691 7.222-28.117 12.782-33.677s13.987-10.133 33.676-12.783c20.61-2.769 48.239-2.837 89.37-2.837h512c41.131 0 68.762 0.068 89.37 2.837 19.691 2.65 28.117 7.223 33.677 12.783s10.133 13.986 12.783 33.677c2.769 20.608 2.837 48.239 2.837 89.37v170.667c0 41.131-0.068 68.76-2.837 89.37-2.65 19.689-7.223 28.116-12.783 33.676s-13.986 10.135-33.677 12.782c-20.608 2.771-48.239 2.839-89.37 2.839h-512c-41.131 0-68.76-0.068-89.37-2.839zM394.667 490.667c0-17.673 14.327-32 32-32h170.667c17.673 0 32 14.327 32 32s-14.327 32-32 32h-170.667c-17.673 0-32-14.327-32-32zM256 448c-23.564 0-42.667 19.102-42.667 42.667s19.103 42.667 42.667 42.667c23.564 0 42.667-19.102 42.667-42.667s-19.102-42.667-42.667-42.667zM810.667 490.667c0 23.565-19.102 42.667-42.667 42.667s-42.667-19.102-42.667-42.667c0-23.565 19.102-42.667 42.667-42.667s42.667 19.102 42.667 42.667zM768 618.667c-23.565 0-42.667 19.102-42.667 42.667s19.102 42.667 42.667 42.667c23.565 0 42.667-19.103 42.667-42.667s-19.102-42.667-42.667-42.667zM298.667 661.333c0 23.564-19.102 42.667-42.667 42.667s-42.667-19.103-42.667-42.667c0-23.564 19.103-42.667 42.667-42.667s42.667 19.102 42.667 42.667zM426.667 618.667c-23.564 0-42.667 19.102-42.667 42.667s19.103 42.667 42.667 42.667c23.565 0 42.667-19.103 42.667-42.667s-19.102-42.667-42.667-42.667zM640 661.333c0 23.564-19.102 42.667-42.667 42.667s-42.667-19.103-42.667-42.667c0-23.564 19.102-42.667 42.667-42.667s42.667 19.102 42.667 42.667zM534.626 214.626l128-128c12.497-12.497 12.497-32.755 0-45.252s-32.755-12.497-45.252 0l-105.374 105.37-105.373-105.37c-12.497-12.497-32.758-12.497-45.255 0s-12.497 32.755 0 45.252l128.001 128c12.497 12.497 32.755 12.497 45.252 0z" />
<glyph unicode="&#xe95a;" d="M385.856 83.674l-290.24 290.24c-26.422 26.423-39.979 63.074-37.113 100.326l17.24 224.121c4.842 62.948 54.858 112.964 117.806 117.806l224.119 17.24c37.257 2.866 73.904-10.691 100.327-37.114l290.24-290.241c49.988-49.984 49.988-131.029 0-181.018l-241.361-241.361c-49.984-49.984-131.029-49.984-181.018 0zM295.348 475.887c33.325-33.327 87.354-33.327 120.679 0 33.325 33.323 33.325 87.353 0 120.678s-87.354 33.325-120.679 0c-33.325-33.325-33.325-87.355 0-120.678z" />
<glyph unicode="&#xe95b;" d="M195.924 784.251c-47.211-3.631-84.723-41.143-88.354-88.354l-17.24-224.119c-2.15-27.942 8.018-55.428 27.835-75.247l290.24-290.24c37.492-37.491 98.275-37.491 135.766 0l241.357 241.361c37.491 37.491 37.491 98.274 0 135.765l-290.24 290.238c-19.814 19.817-47.3 29.984-75.244 27.835l-224.119-17.24zM43.759 700.805c6.053 78.685 68.573 141.204 147.257 147.257l224.119 17.24c46.57 3.582 92.381-13.364 125.409-46.391l290.24-290.241c62.485-62.485 62.485-163.789 0-226.274l-214.865-214.865c35.682-17.045 79.714-10.79 109.274 18.765l150.848 150.852c87.475 87.475 87.475 229.303 0 316.782l-241.361 241.359c-12.497 12.497-12.497 32.758 0 45.255s32.759 12.497 45.257 0l241.357-241.359c112.474-112.471 112.474-294.824 0-407.293l-150.848-150.848c-55.403-55.403-141.325-61.683-203.644-18.842-62.319-42.846-148.247-36.57-203.651 18.837l-290.24 290.24c-33.028 33.024-49.974 78.835-46.392 125.406l17.24 224.12zM317.899 573.927c20.828 20.828 54.597 20.828 75.424 0s20.828-54.597 0-75.427c-20.828-20.826-54.597-20.826-75.424 0-20.828 20.83-20.828 54.599 0 75.427zM438.579 619.182c-45.822 45.821-120.113 45.821-165.935 0s-45.821-120.114 0-165.934c45.821-45.824 120.113-45.824 165.935 0 45.82 45.82 45.82 120.112 0 165.934z" />
<glyph unicode="&#xe95c;" d="M853.333 448c0-188.513-152.82-341.333-341.333-341.333s-341.333 152.82-341.333 341.333c0 188.513 152.82 341.333 341.333 341.333s341.333-152.82 341.333-341.333z" />
<glyph unicode="&#xe95d;" d="M512.055 757.333c69.385 0 133.346-22.806 184.93-61.342 62.477-46.673 106.671-116.307 120.115-196.369-60.39-57.114-141.286-117.201-235.703-171.712-94.4-54.502-186.877-94.515-266.528-118.259-59.757 49.489-100.598 121.011-110.051 202.108-1.384 11.874-2.097 23.97-2.097 36.241 0 170.84 138.493 309.333 309.335 309.333zM819.772 416.183c-15.927-155.891-147.618-277.517-307.716-277.517-45.018 0-87.793 9.617-126.38 26.91 71.779 25.685 149.565 61.786 227.721 106.91 78.127 45.107 148.254 94.396 206.374 143.697zM301.658 139.554c59.905-40.943 132.352-64.887 210.397-64.887 206.187 0 373.333 167.147 373.333 373.333 0 9.404-0.35 18.726-1.033 27.959 9.003 9.173 17.523 18.291 25.527 27.319 33.702 38.005 59.558 75.834 73.677 111.21 13.952 34.95 18.411 72.973-0.375 105.511-21.841 37.829-65.557 52.208-110.571 55.072-42.581 2.708-94.037-4.161-150.165-18.631-59.913 40.94-132.399 64.892-210.394 64.892-206.188 0-373.335-167.147-373.335-373.333 0-9.408 0.349-18.735 1.034-27.977-40.599-41.378-72.279-82.509-91.222-120.742-20.022-40.41-29.424-85.457-7.585-123.281 18.786-32.538 53.944-47.689 91.187-53.082 37.697-5.461 83.386-1.984 133.152 8.201 11.805 2.415 23.941 5.231 36.372 8.435zM240.745 191.548c-40.632-7.454-74.223-8.943-99.436-5.291-28.051 4.062-40.156 13.466-44.935 21.743-5.599 9.698-7.283 28.979 9.507 62.865 10.422 21.035 26.643 44.774 48.357 70.306 16.905-56.7 46.911-107.746 86.508-149.623zM783.364 704.45c33.020 6.057 61.73 8.244 85.184 6.751 37.751-2.401 53.611-13.502 59.209-23.201 4.779-8.276 6.869-23.462-3.635-49.786-9.438-23.644-27.507-51.966-54.242-83.403-16.909 56.712-46.925 107.766-86.515 149.639z" />
<glyph unicode="&#xe95e;" d="M896 832v-512c-170.667 0-256 0-384-85.333-128 85.333-213.333 85.333-384 85.333v512c170.667 0 256 0 384-85.333 128 85.333 213.333 85.333 384 85.333z" />
<glyph unicode="&#xe95f;" d="M896 864h-2.347c-83.371 0.001-149.862 0.002-211.379-11.183-57.822-10.513-110.575-30.7-170.274-68.051-59.699 37.351-112.453 57.538-170.276 68.051-61.515 11.185-128.008 11.184-211.376 11.183h-2.348c-8.487 0-16.626-3.372-22.627-9.373s-9.373-14.141-9.373-22.627v-512c0-17.673 14.327-32 32-32 86.197 0 147.034-0.107 202.276-10.15 53.848-9.792 103.141-29.252 163.975-69.807 10.748-7.168 24.751-7.168 35.499 0 60.834 40.555 110.127 60.015 163.977 69.807 55.241 10.044 116.079 10.15 202.274 10.15 17.673 0 32 14.327 32 32v512c0 17.673-14.327 32-32 32zM330.276 789.85c49.582-9.015 95.302-26.23 149.724-60.561v-437.777c-47.083 25.638-90.984 40.708-138.276 49.306-54.043 9.826-111.929 11.021-181.724 11.162v447.995c69.732-0.166 122.129-1.37 170.276-10.124zM682.274 340.817c-47.292-8.597-91.191-23.667-138.274-49.306v437.777c54.421 34.33 100.143 51.546 149.726 60.561 48.145 8.754 100.54 9.959 170.274 10.124v-447.995c-69.794-0.141-127.68-1.335-181.726-11.162zM128 202.667c86.452 0 153.734-5.363 216.42-22.46 57.286-15.625 109.187-40.614 167.58-77.982 58.394 37.367 110.293 62.357 167.582 77.982 62.686 17.097 129.967 22.46 216.418 22.46 17.673 0 32-14.327 32-32s-14.327-32-32-32c-84.215 0-144.934-5.303-199.582-20.207-54.31-14.81-104.469-39.62-166.669-81.084-10.748-7.168-24.751-7.168-35.499 0-62.199 41.463-112.36 66.274-166.671 81.084-54.647 14.903-115.366 20.207-199.58 20.207-17.673 0-32 14.327-32 32s14.327 32 32 32z" />
<glyph unicode="&#xe960;" d="M298.667 533.333h426.667c94.257 0 170.667-76.41 170.667-170.667v-85.333c0-94.257-76.41-170.667-170.667-170.667h-426.667c-94.257 0-170.667 76.41-170.667 170.667v85.333c0 94.257 76.41 170.667 170.667 170.667z" />
</font>
</defs>
</svg>
