<svg width="1109" height="1478" viewBox="0 0 1109 1478" fill="none" xmlns="http://www.w3.org/2000/svg">
<path d="M854.353 3C817.652 81.5633 688.876 60.4087 615.091 81.5633C587.53 89.4654 553.886 103.386 537.078 123.559C508.049 158.402 519.355 206.779 561.562 230.747C593.443 248.851 630.773 261.216 666.035 274.269C716.713 293.028 767.902 311.015 817.652 331.342C908.378 368.41 1005.39 402.306 1072.14 465.09C1094.26 485.885 1126.47 528.323 1088.34 572.208C1040.31 589.942 974.868 584.571 923.646 583.684C779.529 581.187 636.508 561.399 491.989 567.325C390.424 571.489 293.48 587.537 204.952 629.342C139.166 660.408 68.7942 715.411 56.0732 778.892C42.4222 847.015 137.131 858.19 198.565 867.157C329.216 886.227 460.596 903.855 591.244 922.924C642.281 930.373 694.021 930.453 744.657 939.429C799.715 949.189 855.379 957.281 909.503 970.132C978.817 986.591 1046.69 1008.2 1072.14 1067.68C1089.63 1108.54 1085.88 1155.13 1060.05 1193.36C1023.69 1247.19 951.814 1278.2 884.868 1302.19C774.919 1341.6 657.333 1363.62 540.272 1384.54C361.644 1416.46 182.281 1445.58 3 1475" stroke="url(#paint0_linear)" stroke-width="6" stroke-linecap="round" stroke-linejoin="round" stroke-dasharray="20 20"/>
<defs>
<linearGradient id="paint0_linear" x1="1009" y1="-260" x2="18.5" y2="1475" gradientUnits="userSpaceOnUse">
<stop stop-color="#fad5ca" stop-opacity="0"/>
<stop offset="0.0001" stop-color="#fad5ca" stop-opacity="0.34"/>
<stop offset="0.9999" stop-color="#fad5ca"/>
</linearGradient>
</defs>
</svg>
