<?xml version="1.0" encoding="UTF-8" standalone="no"?>
<!DOCTYPE svg PUBLIC "-//W3C//DTD SVG 1.1//EN" "http://www.w3.org/Graphics/SVG/1.1/DTD/svg11.dtd">
<svg width="100%" height="100%" viewBox="0 0 440 120" version="1.1" xmlns="http://www.w3.org/2000/svg" xmlns:xlink="http://www.w3.org/1999/xlink" xml:space="preserve" xmlns:serif="http://www.serif.com/" style="fill-rule:evenodd;clip-rule:evenodd;stroke-linejoin:round;stroke-miterlimit:2;">
    <g transform="matrix(5,0,0,5,6,0)">
        <path d="M2,7.2C2,7.09 1.91,7 1.8,7L0.2,7C0.09,7 0,7.09 0,7.2L0,16.8C0,16.91 0.09,17 0.2,17L1.8,17C1.91,17 2,16.91 2,16.8L2,7.2Z" style="fill:white;"/>
    </g>
    <g transform="matrix(5,0,0,5,3,0)">
        <path d="M7,2.2C7,2.09 6.91,2 6.8,2L5.2,2C5.09,2 5,2.09 5,2.2L5,21.8C5,21.91 5.09,22 5.2,22L6.8,22C6.91,22 7,21.91 7,21.8L7,2.2Z" style="fill:white;"/>
    </g>
    <g transform="matrix(5,0,0,5,-3.90799e-14,0)">
        <path d="M12,4.2C12,4.09 11.91,4 11.8,4L10.2,4C10.09,4 10,4.09 10,4.2L10,19.8C10,19.91 10.09,20 10.2,20L11.8,20C11.91,20 12,19.91 12,19.8L12,4.2Z" style="fill:white;"/>
    </g>
    <g transform="matrix(5,0,0,5,-3,0)">
        <path d="M17,8.2C17,8.09 16.91,8 16.8,8L15.2,8C15.09,8 15,8.09 15,8.2L15,16.8C15,16.91 15.09,17 15.2,17L16.8,17C16.91,17 17,16.91 17,16.8L17,8.2Z" style="fill:white;"/>
    </g>
    <g transform="matrix(5,0,0,5,-9,0)">
        <path d="M27,7.2C27,7.09 26.91,7 26.8,7L25.2,7C25.09,7 25,7.09 25,7.2L25,17.8C25,17.91 25.09,18 25.2,18L26.8,18C26.91,18 27,17.91 27,17.8L27,7.2Z" style="fill:white;"/>
    </g>
    <g transform="matrix(5,0,0,5,-12,0)">
        <path d="M32,4.2C32,4.09 31.91,4 31.8,4L30.2,4C30.09,4 30,4.09 30,4.2L30,19.8C30,19.91 30.09,20 30.2,20L31.8,20C31.91,20 32,19.91 32,19.8L32,4.2Z" style="fill:white;"/>
    </g>
    <g transform="matrix(5,0,0,5,-15,0)">
        <path d="M37,6.2C37,6.09 36.91,6 36.8,6L35.2,6C35.09,6 35,6.09 35,6.2L35,18.8C35,18.91 35.09,19 35.2,19L36.8,19C36.91,19 37,18.91 37,18.8L37,6.2Z" style="fill:white;"/>
    </g>
    <g transform="matrix(5,0,0,5,-18,0)">
        <path d="M42,8.2C42,8.09 41.91,8 41.8,8L40.2,8C40.09,8 40,8.09 40,8.2L40,16.8C40,16.91 40.09,17 40.2,17L41.8,17C41.91,17 42,16.91 42,16.8L42,8.2Z" style="fill:white;"/>
    </g>
    <g transform="matrix(5,0,0,5,-6,0)">
        <path d="M22,0.2C22,0.09 21.91,0 21.8,0L20.2,0C20.09,0 20,0.09 20,0.2L20,23.8C20,23.91 20.09,24 20.2,24L21.8,24C21.91,24 22,23.91 22,23.8L22,0.2Z" style="fill:white;"/>
    </g>
    <g transform="matrix(5,0,0,5,-24,0)">
        <path d="M52,5.2C52,5.09 51.91,5 51.8,5L50.2,5C50.09,5 50,5.09 50,5.2L50,18.8C50,18.91 50.09,19 50.2,19L51.8,19C51.91,19 52,18.91 52,18.8L52,5.2Z" style="fill:white;"/>
    </g>
    <g transform="matrix(5,0,0,5,-27,0)">
        <path d="M57,4.2C57,4.09 56.91,4 56.8,4L55.2,4C55.09,4 55,4.09 55,4.2L55,19.8C55,19.91 55.09,20 55.2,20L56.8,20C56.91,20 57,19.91 57,19.8L57,4.2Z" style="fill:white;"/>
    </g>
    <g transform="matrix(5,0,0,5,-30,0)">
        <path d="M62,8.2C62,8.09 61.91,8 61.8,8L60.2,8C60.09,8 60,8.09 60,8.2L60,16.8C60,16.91 60.09,17 60.2,17L61.8,17C61.91,17 62,16.91 62,16.8L62,8.2Z" style="fill:white;"/>
    </g>
    <g transform="matrix(5,0,0,5,-33,0)">
        <path d="M67,9.2C67,9.09 66.91,9 66.8,9L65.2,9C65.09,9 65,9.09 65,9.2L65,14.8C65,14.91 65.09,15 65.2,15L66.8,15C66.91,15 67,14.91 67,14.8L67,9.2Z" style="fill:white;"/>
    </g>
    <g transform="matrix(5,0,0,5,-36,0)">
        <path d="M72,8.2C72,8.09 71.91,8 71.8,8L70.2,8C70.09,8 70,8.09 70,8.2L70,16.8C70,16.91 70.09,17 70.2,17L71.8,17C71.91,17 72,16.91 72,16.8L72,8.2Z" style="fill:white;"/>
    </g>
    <g transform="matrix(5,0,0,5,-39,0)">
        <path d="M77,6.2C77,6.09 76.91,6 76.8,6L75.2,6C75.09,6 75,6.09 75,6.2L75,17.8C75,17.91 75.09,18 75.2,18L76.8,18C76.91,18 77,17.91 77,17.8L77,6.2Z" style="fill:white;"/>
    </g>
    <g transform="matrix(5,0,0,5,-42,0)">
        <path d="M82,4.2C82,4.09 81.91,4 81.8,4L80.2,4C80.09,4 80,4.09 80,4.2L80,19.8C80,19.91 80.09,20 80.2,20L81.8,20C81.91,20 82,19.91 82,19.8L82,4.2Z" style="fill:white;"/>
    </g>
    <g transform="matrix(5,0,0,5,-45,0)">
        <path d="M87,2.2C87,2.09 86.91,2 86.8,2L85.2,2C85.09,2 85,2.09 85,2.2L85,22.8C85,22.91 85.09,23 85.2,23L86.8,23C86.91,23 87,22.91 87,22.8L87,2.2Z" style="fill:white;"/>
    </g>
    <g transform="matrix(5,0,0,5,-51,0)">
        <path d="M97,5.2C97,5.09 96.91,5 96.8,5L95.2,5C95.09,5 95,5.09 95,5.2L95,19.8C95,19.91 95.09,20 95.2,20L96.8,20C96.91,20 97,19.91 97,19.8L97,5.2Z" style="fill:white;"/>
    </g>
    <g transform="matrix(5,0,0,5,-48,0)">
        <path d="M92,3.2C92,3.09 91.91,3 91.8,3L90.2,3C90.09,3 90,3.09 90,3.2L90,20.8C90,20.91 90.09,21 90.2,21L91.8,21C91.91,21 92,20.91 92,20.8L92,3.2Z" style="fill:white;"/>
    </g>
    <g transform="matrix(5,0,0,5,-21,0)">
        <path d="M47,3.2C47,3.09 46.91,3 46.8,3L45.2,3C45.09,3 45,3.09 45,3.2L45,21.8C45,21.91 45.09,22 45.2,22L46.8,22C46.91,22 47,21.91 47,21.8L47,3.2Z" style="fill:white;"/>
    </g>
</svg>
